<svg preserveAspectRatio="none" overflow="visible" style="display: block;" width="2260.56" height="1080" viewBox="0 0 2260.56 1080" fill="none" xmlns="http://www.w3.org/2000/svg">
<path id="Union" d="M2259.43 1.125H2222.27V37.2031H2259.43V38.3281H2222.27V74.4053H2259.43V75.5303H2222.27V111.608H2259.43V112.733H2222.27V148.811H2259.43V149.936H2222.27V186.013H2259.43V187.138H2222.27V223.217H2259.43V224.342H2222.27V260.419H2259.43V261.544H2222.27V297.621H2259.43V298.746H2222.27V334.823H2259.43V335.948H2222.27V372.026H2259.43V373.151H2222.27V409.229H2259.43V410.354H2222.27V446.432H2259.43V447.557H2222.27V483.634H2259.43V484.759H2222.27V520.838H2259.43V521.963H2222.27V558.039H2259.43V559.164H2222.27V595.242H2259.43V596.367H2222.27V632.445H2259.43V633.57H2222.27V669.647H2259.43V670.772H2222.27V706.851H2259.43V707.976H2222.27V744.054H2259.43V745.179H2222.27V781.256H2259.43V782.381H2222.27V818.458H2259.43V819.583H2222.27V855.66H2259.43V856.785H2222.27V892.864H2259.43V893.989H2222.27V930.066H2259.43V931.191H2222.27V967.269H2259.43V968.394H2222.27V1004.47H2259.43V1005.6H2222.27V1041.67H2259.43V1042.8H2222.27V1078.88H2259.43V1080H0V1078.88H0.00390625V1042.8H0V1041.67H0.00390625V1005.6H0V1004.47H0.00390625V968.394H0V967.269H0.00390625V931.191H0V930.066H0.00390625V893.989H0V892.864H0.00390625V856.785H0V855.66H0.00390625V819.583H0V818.458H0.00390625V782.381H0V781.256H0.00390625V745.179H0V744.054H0.00390625V707.976H0V706.851H0.00390625V670.772H0V669.647H0.00390625V633.57H0V632.445H0.00390625V596.367H0V595.242H0.00390625V559.164H0V558.039H0.00390625V521.963H0V520.838H0.00390625V484.759H0V483.634H0.00390625V447.557H0V446.432H0.00390625V410.354H0V409.229H0.00390625V373.151H0V372.026H0.00390625V335.948H0V334.823H0.00390625V298.746H0V297.621H0.00390625V261.544H0V260.419H0.00390625V224.342H0V223.217H0.00390625V187.138H0V186.013H0.00390625V149.936H0V148.811H0.00390625V112.733H0V111.608H0.00390625V75.5303H0V74.4053H0.00390625V38.3281H0V37.2031H0.00390625V1.125H0V0H2259.43V1.125ZM2260.56 1080H2259.44L2259.44 1.125H2260.56L2260.56 1080ZM1.12891 1078.88H38.2998V1042.8H1.12891V1078.88ZM39.4248 1078.88H76.5938V1042.8H39.4248V1078.88ZM77.7188 1078.88H114.89V1042.8H77.7188V1078.88ZM116.015 1078.88H153.185V1042.8H116.015V1078.88ZM154.31 1078.88H191.481V1042.8H154.31V1078.88ZM192.606 1078.88H229.776V1042.8H192.606V1078.88ZM230.901 1078.88H268.071V1042.8H230.901V1078.88ZM269.196 1078.88H306.365V1042.8H269.196V1078.88ZM307.49 1078.88H344.663V1042.8H307.49V1078.88ZM345.788 1078.88H382.958V1042.8H345.788V1078.88ZM384.083 1078.88H421.253V1042.8H384.083V1078.88ZM422.378 1078.88H459.549V1042.8H422.378V1078.88ZM460.674 1078.88H497.844V1042.8H460.674V1078.88ZM498.969 1078.88H536.14V1042.8H498.969V1078.88ZM537.265 1078.88H574.435V1042.8H537.265V1078.88ZM575.56 1078.88H612.73V1042.8H575.56V1078.88ZM613.855 1078.88H651.027V1042.8H613.855V1078.88ZM652.152 1078.88H689.322V1042.8H652.152V1078.88ZM690.447 1078.88H727.617V1042.8H690.447V1078.88ZM728.742 1078.88H765.913V1042.8H728.742V1078.88ZM767.038 1078.88H804.208V1042.8H767.038V1078.88ZM805.333 1078.88H842.504V1042.8H805.333V1078.88ZM843.629 1078.88H880.799V1042.8H843.629V1078.88ZM881.924 1078.88H919.094V1042.8H881.924V1078.88ZM920.219 1078.88H957.39V1042.8H920.219V1078.88ZM958.515 1078.88H995.685V1042.8H958.515V1078.88ZM996.81 1078.88H1033.98V1042.8H996.81V1078.88ZM1035.11 1078.88H1072.28V1042.8H1035.11V1078.88ZM1073.4 1078.88H1110.57V1042.8H1073.4V1078.88ZM1111.7 1078.88H1148.87V1042.8H1111.7V1078.88ZM1149.99 1078.88H1187.16V1042.8H1149.99V1078.88ZM1188.29 1078.88H1225.46V1042.8H1188.29V1078.88ZM1226.58 1078.88H1263.75V1042.8H1226.58V1078.88ZM1264.88 1078.88H1302.05V1042.8H1264.88V1078.88ZM1303.17 1078.88H1340.34V1042.8H1303.17V1078.88ZM1341.47 1078.88H1378.64V1042.8H1341.47V1078.88ZM1379.76 1078.88H1416.94V1042.8H1379.76V1078.88ZM1418.06 1078.88H1455.23V1042.8H1418.06V1078.88ZM1456.36 1078.88H1493.53V1042.8H1456.36V1078.88ZM1494.65 1078.88H1531.82V1042.8H1494.65V1078.88ZM1532.95 1078.88H1570.12V1042.8H1532.95V1078.88ZM1571.24 1078.88H1608.41V1042.8H1571.24V1078.88ZM1609.54 1078.88H1646.71V1042.8H1609.54V1078.88ZM1647.83 1078.88H1685V1042.8H1647.83V1078.88ZM1686.13 1078.88H1723.3V1042.8H1686.13V1078.88ZM1724.42 1078.88H1761.59V1042.8H1724.42V1078.88ZM1762.72 1078.88H1799.89V1042.8H1762.72V1078.88ZM1801.02 1078.88H1838.18V1042.8H1801.02V1078.88ZM1839.31 1078.88H1876.48V1042.8H1839.31V1078.88ZM1877.61 1078.88H1914.78V1042.8H1877.61V1078.88ZM1915.9 1078.88H1953.07V1042.8H1915.9V1078.88ZM1954.2 1078.88H1991.37V1042.8H1954.2V1078.88ZM1992.49 1078.88H2029.66V1042.8H1992.49V1078.88ZM2030.79 1078.88H2067.96V1042.8H2030.79V1078.88ZM2069.08 1078.88H2106.25V1042.8H2069.08V1078.88ZM2107.38 1078.88H2144.55V1042.8H2107.38V1078.88ZM2145.67 1078.88H2182.84V1042.8H2145.67V1078.88ZM2183.97 1078.88H2221.14V1042.8H2183.97V1078.88ZM1.12891 1041.67H38.2998V1005.6H1.12891V1041.67ZM39.4248 1041.67H76.5938V1005.6H39.4248V1041.67ZM77.7188 1041.67H114.89V1005.6H77.7188V1041.67ZM116.015 1041.67H153.185V1005.6H116.015V1041.67ZM154.31 1041.67H191.481V1005.6H154.31V1041.67ZM192.606 1041.67H229.776V1005.6H192.606V1041.67ZM230.901 1041.67H268.071V1005.6H230.901V1041.67ZM269.196 1041.67H306.365V1005.6H269.196V1041.67ZM307.49 1041.67H344.663V1005.6H307.49V1041.67ZM345.788 1041.67H382.958V1005.6H345.788V1041.67ZM384.083 1041.67H421.253V1005.6H384.083V1041.67ZM422.378 1041.67H459.549V1005.6H422.378V1041.67ZM460.674 1041.67H497.844V1005.6H460.674V1041.67ZM498.969 1041.67H536.14V1005.6H498.969V1041.67ZM537.265 1041.67H574.435V1005.6H537.265V1041.67ZM575.56 1041.67H612.73V1005.6H575.56V1041.67ZM613.855 1041.67H651.027V1005.6H613.855V1041.67ZM652.152 1041.67H689.322V1005.6H652.152V1041.67ZM690.447 1041.67H727.617V1005.6H690.447V1041.67ZM728.742 1041.67H765.913V1005.6H728.742V1041.67ZM767.038 1041.67H804.208V1005.6H767.038V1041.67ZM805.333 1041.67H842.504V1005.6H805.333V1041.67ZM843.629 1041.67H880.799V1005.6H843.629V1041.67ZM881.924 1041.67H919.094V1005.6H881.924V1041.67ZM920.219 1041.67H957.39V1005.6H920.219V1041.67ZM958.515 1041.67H995.685V1005.6H958.515V1041.67ZM996.81 1041.67H1033.98V1005.6H996.81V1041.67ZM1035.11 1041.67H1072.28V1005.6H1035.11V1041.67ZM1073.4 1041.67H1110.57V1005.6H1073.4V1041.67ZM1111.7 1041.67H1148.87V1005.6H1111.7V1041.67ZM1149.99 1041.67H1187.16V1005.6H1149.99V1041.67ZM1188.29 1041.67H1225.46V1005.6H1188.29V1041.67ZM1226.58 1041.67H1263.75V1005.6H1226.58V1041.67ZM1264.88 1041.67H1302.05V1005.6H1264.88V1041.67ZM1303.17 1041.67H1340.34V1005.6H1303.17V1041.67ZM1341.47 1041.67H1378.64V1005.6H1341.47V1041.67ZM1379.76 1041.67H1416.94V1005.6H1379.76V1041.67ZM1418.06 1041.67H1455.23V1005.6H1418.06V1041.67ZM1456.36 1041.67H1493.53V1005.6H1456.36V1041.67ZM1494.65 1041.67H1531.82V1005.6H1494.65V1041.67ZM1532.95 1041.67H1570.12V1005.6H1532.95V1041.67ZM1571.24 1041.67H1608.41V1005.6H1571.24V1041.67ZM1609.54 1041.67H1646.71V1005.6H1609.54V1041.67ZM1647.83 1041.67H1685V1005.6H1647.83V1041.67ZM1686.13 1041.67H1723.3V1005.6H1686.13V1041.67ZM1724.42 1041.67H1761.59V1005.6H1724.42V1041.67ZM1762.72 1041.67H1799.89V1005.6H1762.72V1041.67ZM1801.02 1041.67H1838.18V1005.6H1801.02V1041.67ZM1839.31 1041.67H1876.48V1005.6H1839.31V1041.67ZM1877.61 1041.67H1914.78V1005.6H1877.61V1041.67ZM1915.9 1041.67H1953.07V1005.6H1915.9V1041.67ZM1954.2 1041.67H1991.37V1005.6H1954.2V1041.67ZM1992.49 1041.67H2029.66V1005.6H1992.49V1041.67ZM2030.79 1041.67H2067.96V1005.6H2030.79V1041.67ZM2069.08 1041.67H2106.25V1005.6H2069.08V1041.67ZM2107.38 1041.67H2144.55V1005.6H2107.38V1041.67ZM2145.67 1041.67H2182.84V1005.6H2145.67V1041.67ZM2183.97 1041.67H2221.14V1005.6H2183.97V1041.67ZM1.12891 1004.47H38.2998V968.394H1.12891V1004.47ZM39.4248 1004.47H76.5938V968.394H39.4248V1004.47ZM77.7188 1004.47H114.89V968.394H77.7188V1004.47ZM116.015 1004.47H153.185V968.394H116.015V1004.47ZM154.31 1004.47H191.481V968.394H154.31V1004.47ZM192.606 1004.47H229.776V968.394H192.606V1004.47ZM230.901 1004.47H268.071V968.394H230.901V1004.47ZM269.196 1004.47H306.365V968.394H269.196V1004.47ZM307.49 1004.47H344.663V968.394H307.49V1004.47ZM345.788 1004.47H382.958V968.394H345.788V1004.47ZM384.083 1004.47H421.253V968.394H384.083V1004.47ZM422.378 1004.47H459.549V968.394H422.378V1004.47ZM460.674 1004.47H497.844V968.394H460.674V1004.47ZM498.969 1004.47H536.14V968.394H498.969V1004.47ZM537.265 1004.47H574.435V968.394H537.265V1004.47ZM575.56 1004.47H612.73V968.394H575.56V1004.47ZM613.855 1004.47H651.027V968.394H613.855V1004.47ZM652.152 1004.47H689.322V968.394H652.152V1004.47ZM690.447 1004.47H727.617V968.394H690.447V1004.47ZM728.742 1004.47H765.913V968.394H728.742V1004.47ZM767.038 1004.47H804.208V968.394H767.038V1004.47ZM805.333 1004.47H842.504V968.394H805.333V1004.47ZM843.629 1004.47H880.799V968.394H843.629V1004.47ZM881.924 1004.47H919.094V968.394H881.924V1004.47ZM920.219 1004.47H957.39V968.394H920.219V1004.47ZM958.515 1004.47H995.685V968.394H958.515V1004.47ZM996.81 1004.47H1033.98V968.394H996.81V1004.47ZM1035.11 1004.47H1072.28V968.394H1035.11V1004.47ZM1073.4 1004.47H1110.57V968.394H1073.4V1004.47ZM1111.7 1004.47H1148.87V968.394H1111.7V1004.47ZM1149.99 1004.47H1187.16V968.394H1149.99V1004.47ZM1188.29 1004.47H1225.46V968.394H1188.29V1004.47ZM1226.58 1004.47H1263.75V968.394H1226.58V1004.47ZM1264.88 1004.47H1302.05V968.394H1264.88V1004.47ZM1303.17 1004.47H1340.34V968.394H1303.17V1004.47ZM1341.47 1004.47H1378.64V968.394H1341.47V1004.47ZM1379.76 1004.47H1416.94V968.394H1379.76V1004.47ZM1418.06 1004.47H1455.23V968.394H1418.06V1004.47ZM1456.36 1004.47H1493.53V968.394H1456.36V1004.47ZM1494.65 1004.47H1531.82V968.394H1494.65V1004.47ZM1532.95 1004.47H1570.12V968.394H1532.95V1004.47ZM1571.24 1004.47H1608.41V968.394H1571.24V1004.47ZM1609.54 1004.47H1646.71V968.394H1609.54V1004.47ZM1647.83 1004.47H1685V968.394H1647.83V1004.47ZM1686.13 1004.47H1723.3V968.394H1686.13V1004.47ZM1724.42 1004.47H1761.59V968.394H1724.42V1004.47ZM1762.72 1004.47H1799.89V968.394H1762.72V1004.47ZM1801.02 1004.47H1838.18V968.394H1801.02V1004.47ZM1839.31 1004.47H1876.48V968.394H1839.31V1004.47ZM1877.61 1004.47H1914.78V968.394H1877.61V1004.47ZM1915.9 1004.47H1953.07V968.394H1915.9V1004.47ZM1954.2 1004.47H1991.37V968.394H1954.2V1004.47ZM1992.49 1004.47H2029.66V968.394H1992.49V1004.47ZM2030.79 1004.47H2067.96V968.394H2030.79V1004.47ZM2069.08 1004.47H2106.25V968.394H2069.08V1004.47ZM2107.38 1004.47H2144.55V968.394H2107.38V1004.47ZM2145.67 1004.47H2182.84V968.394H2145.67V1004.47ZM2183.97 1004.47H2221.14V968.394H2183.97V1004.47ZM1.12891 967.269H38.2998V931.191H1.12891V967.269ZM39.4248 967.269H76.5938V931.191H39.4248V967.269ZM77.7188 967.269H114.89V931.191H77.7188V967.269ZM116.015 967.269H153.185V931.191H116.015V967.269ZM154.31 967.269H191.481V931.191H154.31V967.269ZM192.606 967.269H229.776V931.191H192.606V967.269ZM230.901 967.269H268.071V931.191H230.901V967.269ZM269.196 967.269H306.365V931.191H269.196V967.269ZM307.49 967.269H344.663V931.191H307.49V967.269ZM345.788 967.269H382.958V931.191H345.788V967.269ZM384.083 967.269H421.253V931.191H384.083V967.269ZM422.378 967.269H459.549V931.191H422.378V967.269ZM460.674 967.269H497.844V931.191H460.674V967.269ZM498.969 967.269H536.14V931.191H498.969V967.269ZM537.265 967.269H574.435V931.191H537.265V967.269ZM575.56 967.269H612.73V931.191H575.56V967.269ZM613.855 967.269H651.027V931.191H613.855V967.269ZM652.152 967.269H689.322V931.191H652.152V967.269ZM690.447 967.269H727.617V931.191H690.447V967.269ZM728.742 967.269H765.913V931.191H728.742V967.269ZM767.038 967.269H804.208V931.191H767.038V967.269ZM805.333 967.269H842.504V931.191H805.333V967.269ZM843.629 967.269H880.799V931.191H843.629V967.269ZM881.924 967.269H919.094V931.191H881.924V967.269ZM920.219 967.269H957.39V931.191H920.219V967.269ZM958.515 967.269H995.685V931.191H958.515V967.269ZM996.81 967.269H1033.98V931.191H996.81V967.269ZM1035.11 967.269H1072.28V931.191H1035.11V967.269ZM1073.4 967.269H1110.57V931.191H1073.4V967.269ZM1111.7 967.269H1148.87V931.191H1111.7V967.269ZM1149.99 967.269H1187.16V931.191H1149.99V967.269ZM1188.29 967.269H1225.46V931.191H1188.29V967.269ZM1226.58 967.269H1263.75V931.191H1226.58V967.269ZM1264.88 967.269H1302.05V931.191H1264.88V967.269ZM1303.17 967.269H1340.34V931.191H1303.17V967.269ZM1341.47 967.269H1378.64V931.191H1341.47V967.269ZM1379.76 967.269H1416.94V931.191H1379.76V967.269ZM1418.06 967.269H1455.23V931.191H1418.06V967.269ZM1456.36 967.269H1493.53V931.191H1456.36V967.269ZM1494.65 967.269H1531.82V931.191H1494.65V967.269ZM1532.95 967.269H1570.12V931.191H1532.95V967.269ZM1571.24 967.269H1608.41V931.191H1571.24V967.269ZM1609.54 967.269H1646.71V931.191H1609.54V967.269ZM1647.83 967.269H1685V931.191H1647.83V967.269ZM1686.13 967.269H1723.3V931.191H1686.13V967.269ZM1724.42 967.269H1761.59V931.191H1724.42V967.269ZM1762.72 967.269H1799.89V931.191H1762.72V967.269ZM1801.02 967.269H1838.18V931.191H1801.02V967.269ZM1839.31 967.269H1876.48V931.191H1839.31V967.269ZM1877.61 967.269H1914.78V931.191H1877.61V967.269ZM1915.9 967.269H1953.07V931.191H1915.9V967.269ZM1954.2 967.269H1991.37V931.191H1954.2V967.269ZM1992.49 967.269H2029.66V931.191H1992.49V967.269ZM2030.79 967.269H2067.96V931.191H2030.79V967.269ZM2069.08 967.269H2106.25V931.191H2069.08V967.269ZM2107.38 967.269H2144.55V931.191H2107.38V967.269ZM2145.67 967.269H2182.84V931.191H2145.67V967.269ZM2183.97 967.269H2221.14V931.191H2183.97V967.269ZM1.12891 930.066H38.2998V893.989H1.12891V930.066ZM39.4248 930.066H76.5938V893.989H39.4248V930.066ZM77.7188 930.066H114.89V893.989H77.7188V930.066ZM116.015 930.066H153.185V893.989H116.015V930.066ZM154.31 930.066H191.481V893.989H154.31V930.066ZM192.606 930.066H229.776V893.989H192.606V930.066ZM230.901 930.066H268.071V893.989H230.901V930.066ZM269.196 930.066H306.365V893.989H269.196V930.066ZM307.49 930.066H344.663V893.989H307.49V930.066ZM345.788 930.066H382.958V893.989H345.788V930.066ZM384.083 930.066H421.253V893.989H384.083V930.066ZM422.378 930.066H459.549V893.989H422.378V930.066ZM460.674 930.066H497.844V893.989H460.674V930.066ZM498.969 930.066H536.14V893.989H498.969V930.066ZM537.265 930.066H574.435V893.989H537.265V930.066ZM575.56 930.066H612.73V893.989H575.56V930.066ZM613.855 930.066H651.027V893.989H613.855V930.066ZM652.152 930.066H689.322V893.989H652.152V930.066ZM690.447 930.066H727.617V893.989H690.447V930.066ZM728.742 930.066H765.913V893.989H728.742V930.066ZM767.038 930.066H804.208V893.989H767.038V930.066ZM805.333 930.066H842.504V893.989H805.333V930.066ZM843.629 930.066H880.799V893.989H843.629V930.066ZM881.924 930.066H919.094V893.989H881.924V930.066ZM920.219 930.066H957.39V893.989H920.219V930.066ZM958.515 930.066H995.685V893.989H958.515V930.066ZM996.81 930.066H1033.98V893.989H996.81V930.066ZM1035.11 930.066H1072.28V893.989H1035.11V930.066ZM1073.4 930.066H1110.57V893.989H1073.4V930.066ZM1111.7 930.066H1148.87V893.989H1111.7V930.066ZM1149.99 930.066H1187.16V893.989H1149.99V930.066ZM1188.29 930.066H1225.46V893.989H1188.29V930.066ZM1226.58 930.066H1263.75V893.989H1226.58V930.066ZM1264.88 930.066H1302.05V893.989H1264.88V930.066ZM1303.17 930.066H1340.34V893.989H1303.17V930.066ZM1341.47 930.066H1378.64V893.989H1341.47V930.066ZM1379.76 930.066H1416.94V893.989H1379.76V930.066ZM1418.06 930.066H1455.23V893.989H1418.06V930.066ZM1456.36 930.066H1493.53V893.989H1456.36V930.066ZM1494.65 930.066H1531.82V893.989H1494.65V930.066ZM1532.95 930.066H1570.12V893.989H1532.95V930.066ZM1571.24 930.066H1608.41V893.989H1571.24V930.066ZM1609.54 930.066H1646.71V893.989H1609.54V930.066ZM1647.83 930.066H1685V893.989H1647.83V930.066ZM1686.13 930.066H1723.3V893.989H1686.13V930.066ZM1724.42 930.066H1761.59V893.989H1724.42V930.066ZM1762.72 930.066H1799.89V893.989H1762.72V930.066ZM1801.02 930.066H1838.18V893.989H1801.02V930.066ZM1839.31 930.066H1876.48V893.989H1839.31V930.066ZM1877.61 930.066H1914.78V893.989H1877.61V930.066ZM1915.9 930.066H1953.07V893.989H1915.9V930.066ZM1954.2 930.066H1991.37V893.989H1954.2V930.066ZM1992.49 930.066H2029.66V893.989H1992.49V930.066ZM2030.79 930.066H2067.96V893.989H2030.79V930.066ZM2069.08 930.066H2106.25V893.989H2069.08V930.066ZM2107.38 930.066H2144.55V893.989H2107.38V930.066ZM2145.67 930.066H2182.84V893.989H2145.67V930.066ZM2183.97 930.066H2221.14V893.989H2183.97V930.066ZM1.12891 892.864H38.2998V856.785H1.12891V892.864ZM39.4248 892.864H76.5938V856.785H39.4248V892.864ZM77.7188 892.864H114.89V856.785H77.7188V892.864ZM116.015 892.864H153.185V856.785H116.015V892.864ZM154.31 892.864H191.481V856.785H154.31V892.864ZM192.606 892.864H229.776V856.785H192.606V892.864ZM230.901 892.864H268.071V856.785H230.901V892.864ZM269.196 892.864H306.365V856.785H269.196V892.864ZM307.49 892.864H344.663V856.785H307.49V892.864ZM345.788 892.864H382.958V856.785H345.788V892.864ZM384.083 892.864H421.253V856.785H384.083V892.864ZM422.378 892.864H459.549V856.785H422.378V892.864ZM460.674 892.864H497.844V856.785H460.674V892.864ZM498.969 892.864H536.14V856.785H498.969V892.864ZM537.265 892.864H574.435V856.785H537.265V892.864ZM575.56 892.864H612.73V856.785H575.56V892.864ZM613.855 892.864H651.027V856.785H613.855V892.864ZM652.152 892.864H689.322V856.785H652.152V892.864ZM690.447 892.864H727.617V856.785H690.447V892.864ZM728.742 892.864H765.913V856.785H728.742V892.864ZM767.038 892.864H804.208V856.785H767.038V892.864ZM805.333 892.864H842.504V856.785H805.333V892.864ZM843.629 892.864H880.799V856.785H843.629V892.864ZM881.924 892.864H919.094V856.785H881.924V892.864ZM920.219 892.864H957.39V856.785H920.219V892.864ZM958.515 892.864H995.685V856.785H958.515V892.864ZM996.81 892.864H1033.98V856.785H996.81V892.864ZM1035.11 892.864H1072.28V856.785H1035.11V892.864ZM1073.4 892.864H1110.57V856.785H1073.4V892.864ZM1111.7 892.864H1148.87V856.785H1111.7V892.864ZM1149.99 892.864H1187.16V856.785H1149.99V892.864ZM1188.29 892.864H1225.46V856.785H1188.29V892.864ZM1226.58 892.864H1263.75V856.785H1226.58V892.864ZM1264.88 892.864H1302.05V856.785H1264.88V892.864ZM1303.17 892.864H1340.34V856.785H1303.17V892.864ZM1341.47 892.864H1378.64V856.785H1341.47V892.864ZM1379.76 892.864H1416.94V856.785H1379.76V892.864ZM1418.06 892.864H1455.23V856.785H1418.06V892.864ZM1456.36 892.864H1493.53V856.785H1456.36V892.864ZM1494.65 892.864H1531.82V856.785H1494.65V892.864ZM1532.95 892.864H1570.12V856.785H1532.95V892.864ZM1571.24 892.864H1608.41V856.785H1571.24V892.864ZM1609.54 892.864H1646.71V856.785H1609.54V892.864ZM1647.83 892.864H1685V856.785H1647.83V892.864ZM1686.13 892.864H1723.3V856.785H1686.13V892.864ZM1724.42 892.864H1761.59V856.785H1724.42V892.864ZM1762.72 892.864H1799.89V856.785H1762.72V892.864ZM1801.02 892.864H1838.18V856.785H1801.02V892.864ZM1839.31 892.864H1876.48V856.785H1839.31V892.864ZM1877.61 892.864H1914.78V856.785H1877.61V892.864ZM1915.9 892.864H1953.07V856.785H1915.9V892.864ZM1954.2 892.864H1991.37V856.785H1954.2V892.864ZM1992.49 892.864H2029.66V856.785H1992.49V892.864ZM2030.79 892.864H2067.96V856.785H2030.79V892.864ZM2069.08 892.864H2106.25V856.785H2069.08V892.864ZM2107.38 892.864H2144.55V856.785H2107.38V892.864ZM2145.67 892.864H2182.84V856.785H2145.67V892.864ZM2183.97 892.864H2221.14V856.785H2183.97V892.864ZM1.12891 855.66H38.2998V819.583H1.12891V855.66ZM39.4248 855.66H76.5938V819.583H39.4248V855.66ZM77.7188 855.66H114.89V819.583H77.7188V855.66ZM116.015 855.66H153.185V819.583H116.015V855.66ZM154.31 855.66H191.481V819.583H154.31V855.66ZM192.606 855.66H229.776V819.583H192.606V855.66ZM230.901 855.66H268.071V819.583H230.901V855.66ZM269.196 855.66H306.365V819.583H269.196V855.66ZM307.49 855.66H344.663V819.583H307.49V855.66ZM345.788 855.66H382.958V819.583H345.788V855.66ZM384.083 855.66H421.253V819.583H384.083V855.66ZM422.378 855.66H459.549V819.583H422.378V855.66ZM460.674 855.66H497.844V819.583H460.674V855.66ZM498.969 855.66H536.14V819.583H498.969V855.66ZM537.265 855.66H574.435V819.583H537.265V855.66ZM575.56 855.66H612.73V819.583H575.56V855.66ZM613.855 855.66H651.027V819.583H613.855V855.66ZM652.152 855.66H689.322V819.583H652.152V855.66ZM690.447 855.66H727.617V819.583H690.447V855.66ZM728.742 855.66H765.913V819.583H728.742V855.66ZM767.038 855.66H804.208V819.583H767.038V855.66ZM805.333 855.66H842.504V819.583H805.333V855.66ZM843.629 855.66H880.799V819.583H843.629V855.66ZM881.924 855.66H919.094V819.583H881.924V855.66ZM920.219 855.66H957.39V819.583H920.219V855.66ZM958.515 855.66H995.685V819.583H958.515V855.66ZM996.81 855.66H1033.98V819.583H996.81V855.66ZM1035.11 855.66H1072.28V819.583H1035.11V855.66ZM1073.4 855.66H1110.57V819.583H1073.4V855.66ZM1111.7 855.66H1148.87V819.583H1111.7V855.66ZM1149.99 855.66H1187.16V819.583H1149.99V855.66ZM1188.29 855.66H1225.46V819.583H1188.29V855.66ZM1226.58 855.66H1263.75V819.583H1226.58V855.66ZM1264.88 855.66H1302.05V819.583H1264.88V855.66ZM1303.17 855.66H1340.34V819.583H1303.17V855.66ZM1341.47 855.66H1378.64V819.583H1341.47V855.66ZM1379.76 855.66H1416.94V819.583H1379.76V855.66ZM1418.06 855.66H1455.23V819.583H1418.06V855.66ZM1456.36 855.66H1493.53V819.583H1456.36V855.66ZM1494.65 855.66H1531.82V819.583H1494.65V855.66ZM1532.95 855.66H1570.12V819.583H1532.95V855.66ZM1571.24 855.66H1608.41V819.583H1571.24V855.66ZM1609.54 855.66H1646.71V819.583H1609.54V855.66ZM1647.83 855.66H1685V819.583H1647.83V855.66ZM1686.13 855.66H1723.3V819.583H1686.13V855.66ZM1724.42 855.66H1761.59V819.583H1724.42V855.66ZM1762.72 855.66H1799.89V819.583H1762.72V855.66ZM1801.02 855.66H1838.18V819.583H1801.02V855.66ZM1839.31 855.66H1876.48V819.583H1839.31V855.66ZM1877.61 855.66H1914.78V819.583H1877.61V855.66ZM1915.9 855.66H1953.07V819.583H1915.9V855.66ZM1954.2 855.66H1991.37V819.583H1954.2V855.66ZM1992.49 855.66H2029.66V819.583H1992.49V855.66ZM2030.79 855.66H2067.96V819.583H2030.79V855.66ZM2069.08 855.66H2106.25V819.583H2069.08V855.66ZM2107.38 855.66H2144.55V819.583H2107.38V855.66ZM2145.67 855.66H2182.84V819.583H2145.67V855.66ZM2183.97 855.66H2221.14V819.583H2183.97V855.66ZM1.12891 818.458H38.2998V782.381H1.12891V818.458ZM39.4248 818.458H76.5938V782.381H39.4248V818.458ZM77.7188 818.458H114.89V782.381H77.7188V818.458ZM116.015 818.458H153.185V782.381H116.015V818.458ZM154.31 818.458H191.481V782.381H154.31V818.458ZM192.606 818.458H229.776V782.381H192.606V818.458ZM230.901 818.458H268.071V782.381H230.901V818.458ZM269.196 818.458H306.365V782.381H269.196V818.458ZM307.49 818.458H344.663V782.381H307.49V818.458ZM345.788 818.458H382.958V782.381H345.788V818.458ZM384.083 818.458H421.253V782.381H384.083V818.458ZM422.378 818.458H459.549V782.381H422.378V818.458ZM460.674 818.458H497.844V782.381H460.674V818.458ZM498.969 818.458H536.14V782.381H498.969V818.458ZM537.265 818.458H574.435V782.381H537.265V818.458ZM575.56 818.458H612.73V782.381H575.56V818.458ZM613.855 818.458H651.027V782.381H613.855V818.458ZM652.152 818.458H689.322V782.381H652.152V818.458ZM690.447 818.458H727.617V782.381H690.447V818.458ZM728.742 818.458H765.913V782.381H728.742V818.458ZM767.038 818.458H804.208V782.381H767.038V818.458ZM805.333 818.458H842.504V782.381H805.333V818.458ZM843.629 818.458H880.799V782.381H843.629V818.458ZM881.924 818.458H919.094V782.381H881.924V818.458ZM920.219 818.458H957.39V782.381H920.219V818.458ZM958.515 818.458H995.685V782.381H958.515V818.458ZM996.81 818.458H1033.98V782.381H996.81V818.458ZM1035.11 818.458H1072.28V782.381H1035.11V818.458ZM1073.4 818.458H1110.57V782.381H1073.4V818.458ZM1111.7 818.458H1148.87V782.381H1111.7V818.458ZM1149.99 818.458H1187.16V782.381H1149.99V818.458ZM1188.29 818.458H1225.46V782.381H1188.29V818.458ZM1226.58 818.458H1263.75V782.381H1226.58V818.458ZM1264.88 818.458H1302.05V782.381H1264.88V818.458ZM1303.17 818.458H1340.34V782.381H1303.17V818.458ZM1341.47 818.458H1378.64V782.381H1341.47V818.458ZM1379.76 818.458H1416.94V782.381H1379.76V818.458ZM1418.06 818.458H1455.23V782.381H1418.06V818.458ZM1456.36 818.458H1493.53V782.381H1456.36V818.458ZM1494.65 818.458H1531.82V782.381H1494.65V818.458ZM1532.95 818.458H1570.12V782.381H1532.95V818.458ZM1571.24 818.458H1608.41V782.381H1571.24V818.458ZM1609.54 818.458H1646.71V782.381H1609.54V818.458ZM1647.83 818.458H1685V782.381H1647.83V818.458ZM1686.13 818.458H1723.3V782.381H1686.13V818.458ZM1724.42 818.458H1761.59V782.381H1724.42V818.458ZM1762.72 818.458H1799.89V782.381H1762.72V818.458ZM1801.02 818.458H1838.18V782.381H1801.02V818.458ZM1839.31 818.458H1876.48V782.381H1839.31V818.458ZM1877.61 818.458H1914.78V782.381H1877.61V818.458ZM1915.9 818.458H1953.07V782.381H1915.9V818.458ZM1954.2 818.458H1991.37V782.381H1954.2V818.458ZM1992.49 818.458H2029.66V782.381H1992.49V818.458ZM2030.79 818.458H2067.96V782.381H2030.79V818.458ZM2069.08 818.458H2106.25V782.381H2069.08V818.458ZM2107.38 818.458H2144.55V782.381H2107.38V818.458ZM2145.67 818.458H2182.84V782.381H2145.67V818.458ZM2183.97 818.458H2221.14V782.381H2183.97V818.458ZM1.12891 781.256H38.2998V745.179H1.12891V781.256ZM39.4248 781.256H76.5938V745.179H39.4248V781.256ZM77.7188 781.256H114.89V745.179H77.7188V781.256ZM116.015 781.256H153.185V745.179H116.015V781.256ZM154.31 781.256H191.481V745.179H154.31V781.256ZM192.606 781.256H229.776V745.179H192.606V781.256ZM230.901 781.256H268.071V745.179H230.901V781.256ZM269.196 781.256H306.365V745.179H269.196V781.256ZM307.49 781.256H344.663V745.179H307.49V781.256ZM345.788 781.256H382.958V745.179H345.788V781.256ZM384.083 781.256H421.253V745.179H384.083V781.256ZM422.378 781.256H459.549V745.179H422.378V781.256ZM460.674 781.256H497.844V745.179H460.674V781.256ZM498.969 781.256H536.14V745.179H498.969V781.256ZM537.265 781.256H574.435V745.179H537.265V781.256ZM575.56 781.256H612.73V745.179H575.56V781.256ZM613.855 781.256H651.027V745.179H613.855V781.256ZM652.152 781.256H689.322V745.179H652.152V781.256ZM690.447 781.256H727.617V745.179H690.447V781.256ZM728.742 781.256H765.913V745.179H728.742V781.256ZM767.038 781.256H804.208V745.179H767.038V781.256ZM805.333 781.256H842.504V745.179H805.333V781.256ZM843.629 781.256H880.799V745.179H843.629V781.256ZM881.924 781.256H919.094V745.179H881.924V781.256ZM920.219 781.256H957.39V745.179H920.219V781.256ZM958.515 781.256H995.685V745.179H958.515V781.256ZM996.81 781.256H1033.98V745.179H996.81V781.256ZM1035.11 781.256H1072.28V745.179H1035.11V781.256ZM1073.4 781.256H1110.57V745.179H1073.4V781.256ZM1111.7 781.256H1148.87V745.179H1111.7V781.256ZM1149.99 781.256H1187.16V745.179H1149.99V781.256ZM1188.29 781.256H1225.46V745.179H1188.29V781.256ZM1226.58 781.256H1263.75V745.179H1226.58V781.256ZM1264.88 781.256H1302.05V745.179H1264.88V781.256ZM1303.17 781.256H1340.34V745.179H1303.17V781.256ZM1341.47 781.256H1378.64V745.179H1341.47V781.256ZM1379.76 781.256H1416.94V745.179H1379.76V781.256ZM1418.06 781.256H1455.23V745.179H1418.06V781.256ZM1456.36 781.256H1493.53V745.179H1456.36V781.256ZM1494.65 781.256H1531.82V745.179H1494.65V781.256ZM1532.95 781.256H1570.12V745.179H1532.95V781.256ZM1571.24 781.256H1608.41V745.179H1571.24V781.256ZM1609.54 781.256H1646.71V745.179H1609.54V781.256ZM1647.83 781.256H1685V745.179H1647.83V781.256ZM1686.13 781.256H1723.3V745.179H1686.13V781.256ZM1724.42 781.256H1761.59V745.179H1724.42V781.256ZM1762.72 781.256H1799.89V745.179H1762.72V781.256ZM1801.02 781.256H1838.18V745.179H1801.02V781.256ZM1839.31 781.256H1876.48V745.179H1839.31V781.256ZM1877.61 781.256H1914.78V745.179H1877.61V781.256ZM1915.9 781.256H1953.07V745.179H1915.9V781.256ZM1954.2 781.256H1991.37V745.179H1954.2V781.256ZM1992.49 781.256H2029.66V745.179H1992.49V781.256ZM2030.79 781.256H2067.96V745.179H2030.79V781.256ZM2069.08 781.256H2106.25V745.179H2069.08V781.256ZM2107.38 781.256H2144.55V745.179H2107.38V781.256ZM2145.67 781.256H2182.84V745.179H2145.67V781.256ZM2183.97 781.256H2221.14V745.179H2183.97V781.256ZM1.12891 744.054H38.2998V707.976H1.12891V744.054ZM39.4248 744.054H76.5938V707.976H39.4248V744.054ZM77.7188 744.054H114.89V707.976H77.7188V744.054ZM116.015 744.054H153.185V707.976H116.015V744.054ZM154.31 744.054H191.481V707.976H154.31V744.054ZM192.606 744.054H229.776V707.976H192.606V744.054ZM230.901 744.054H268.071V707.976H230.901V744.054ZM269.196 744.054H306.365V707.976H269.196V744.054ZM307.49 744.054H344.663V707.976H307.49V744.054ZM345.788 744.054H382.958V707.976H345.788V744.054ZM384.083 744.054H421.253V707.976H384.083V744.054ZM422.378 744.054H459.549V707.976H422.378V744.054ZM460.674 744.054H497.844V707.976H460.674V744.054ZM498.969 744.054H536.14V707.976H498.969V744.054ZM537.265 744.054H574.435V707.976H537.265V744.054ZM575.56 744.054H612.73V707.976H575.56V744.054ZM613.855 744.054H651.027V707.976H613.855V744.054ZM652.152 744.054H689.322V707.976H652.152V744.054ZM690.447 744.054H727.617V707.976H690.447V744.054ZM728.742 744.054H765.913V707.976H728.742V744.054ZM767.038 744.054H804.208V707.976H767.038V744.054ZM805.333 744.054H842.504V707.976H805.333V744.054ZM843.629 744.054H880.799V707.976H843.629V744.054ZM881.924 744.054H919.094V707.976H881.924V744.054ZM920.219 744.054H957.39V707.976H920.219V744.054ZM958.515 744.054H995.685V707.976H958.515V744.054ZM996.81 744.054H1033.98V707.976H996.81V744.054ZM1035.11 744.054H1072.28V707.976H1035.11V744.054ZM1073.4 744.054H1110.57V707.976H1073.4V744.054ZM1111.7 744.054H1148.87V707.976H1111.7V744.054ZM1149.99 744.054H1187.16V707.976H1149.99V744.054ZM1188.29 744.054H1225.46V707.976H1188.29V744.054ZM1226.58 744.054H1263.75V707.976H1226.58V744.054ZM1264.88 744.054H1302.05V707.976H1264.88V744.054ZM1303.17 744.054H1340.34V707.976H1303.17V744.054ZM1341.47 744.054H1378.64V707.976H1341.47V744.054ZM1379.76 744.054H1416.94V707.976H1379.76V744.054ZM1418.06 744.054H1455.23V707.976H1418.06V744.054ZM1456.36 744.054H1493.53V707.976H1456.36V744.054ZM1494.65 744.054H1531.82V707.976H1494.65V744.054ZM1532.95 744.054H1570.12V707.976H1532.95V744.054ZM1571.24 744.054H1608.41V707.976H1571.24V744.054ZM1609.54 744.054H1646.71V707.976H1609.54V744.054ZM1647.83 744.054H1685V707.976H1647.83V744.054ZM1686.13 744.054H1723.3V707.976H1686.13V744.054ZM1724.42 744.054H1761.59V707.976H1724.42V744.054ZM1762.72 744.054H1799.89V707.976H1762.72V744.054ZM1801.02 744.054H1838.18V707.976H1801.02V744.054ZM1839.31 744.054H1876.48V707.976H1839.31V744.054ZM1877.61 744.054H1914.78V707.976H1877.61V744.054ZM1915.9 744.054H1953.07V707.976H1915.9V744.054ZM1954.2 744.054H1991.37V707.976H1954.2V744.054ZM1992.49 744.054H2029.66V707.976H1992.49V744.054ZM2030.79 744.054H2067.96V707.976H2030.79V744.054ZM2069.08 744.054H2106.25V707.976H2069.08V744.054ZM2107.38 744.054H2144.55V707.976H2107.38V744.054ZM2145.67 744.054H2182.84V707.976H2145.67V744.054ZM2183.97 744.054H2221.14V707.976H2183.97V744.054ZM1.12891 706.851H38.2998V670.772H1.12891V706.851ZM39.4248 706.851H76.5938V670.772H39.4248V706.851ZM77.7188 706.851H114.89V670.772H77.7188V706.851ZM116.015 706.851H153.185V670.772H116.015V706.851ZM154.31 706.851H191.481V670.772H154.31V706.851ZM192.606 706.851H229.776V670.772H192.606V706.851ZM230.901 706.851H268.071V670.772H230.901V706.851ZM269.196 706.851H306.365V670.772H269.196V706.851ZM307.49 706.851H344.663V670.772H307.49V706.851ZM345.788 706.851H382.958V670.772H345.788V706.851ZM384.083 706.851H421.253V670.772H384.083V706.851ZM422.378 706.851H459.549V670.772H422.378V706.851ZM460.674 706.851H497.844V670.772H460.674V706.851ZM498.969 706.851H536.14V670.772H498.969V706.851ZM537.265 706.851H574.435V670.772H537.265V706.851ZM575.56 706.851H612.73V670.772H575.56V706.851ZM613.855 706.851H651.027V670.772H613.855V706.851ZM652.152 706.851H689.322V670.772H652.152V706.851ZM690.447 706.851H727.617V670.772H690.447V706.851ZM728.742 706.851H765.913V670.772H728.742V706.851ZM767.038 706.851H804.208V670.772H767.038V706.851ZM805.333 706.851H842.504V670.772H805.333V706.851ZM843.629 706.851H880.799V670.772H843.629V706.851ZM881.924 706.851H919.094V670.772H881.924V706.851ZM920.219 706.851H957.39V670.772H920.219V706.851ZM958.515 706.851H995.685V670.772H958.515V706.851ZM996.81 706.851H1033.98V670.772H996.81V706.851ZM1035.11 706.851H1072.28V670.772H1035.11V706.851ZM1073.4 706.851H1110.57V670.772H1073.4V706.851ZM1111.7 706.851H1148.87V670.772H1111.7V706.851ZM1149.99 706.851H1187.16V670.772H1149.99V706.851ZM1188.29 706.851H1225.46V670.772H1188.29V706.851ZM1226.58 706.851H1263.75V670.772H1226.58V706.851ZM1264.88 706.851H1302.05V670.772H1264.88V706.851ZM1303.17 706.851H1340.34V670.772H1303.17V706.851ZM1341.47 706.851H1378.64V670.772H1341.47V706.851ZM1379.76 706.851H1416.94V670.772H1379.76V706.851ZM1418.06 706.851H1455.23V670.772H1418.06V706.851ZM1456.36 706.851H1493.53V670.772H1456.36V706.851ZM1494.65 706.851H1531.82V670.772H1494.65V706.851ZM1532.95 706.851H1570.12V670.772H1532.95V706.851ZM1571.24 706.851H1608.41V670.772H1571.24V706.851ZM1609.54 706.851H1646.71V670.772H1609.54V706.851ZM1647.83 706.851H1685V670.772H1647.83V706.851ZM1686.13 706.851H1723.3V670.772H1686.13V706.851ZM1724.42 706.851H1761.59V670.772H1724.42V706.851ZM1762.72 706.851H1799.89V670.772H1762.72V706.851ZM1801.02 706.851H1838.18V670.772H1801.02V706.851ZM1839.31 706.851H1876.48V670.772H1839.31V706.851ZM1877.61 706.851H1914.78V670.772H1877.61V706.851ZM1915.9 706.851H1953.07V670.772H1915.9V706.851ZM1954.2 706.851H1991.37V670.772H1954.2V706.851ZM1992.49 706.851H2029.66V670.772H1992.49V706.851ZM2030.79 706.851H2067.96V670.772H2030.79V706.851ZM2069.08 706.851H2106.25V670.772H2069.08V706.851ZM2107.38 706.851H2144.55V670.772H2107.38V706.851ZM2145.67 706.851H2182.84V670.772H2145.67V706.851ZM2183.97 706.851H2221.14V670.772H2183.97V706.851ZM1.12891 669.647H38.2998V633.57H1.12891V669.647ZM39.4248 669.647H76.5938V633.57H39.4248V669.647ZM77.7188 669.647H114.89V633.57H77.7188V669.647ZM116.015 669.647H153.185V633.57H116.015V669.647ZM154.31 669.647H191.481V633.57H154.31V669.647ZM192.606 669.647H229.776V633.57H192.606V669.647ZM230.901 669.647H268.071V633.57H230.901V669.647ZM269.196 669.647H306.365V633.57H269.196V669.647ZM307.49 669.647H344.663V633.57H307.49V669.647ZM345.788 669.647H382.958V633.57H345.788V669.647ZM384.083 669.647H421.253V633.57H384.083V669.647ZM422.378 669.647H459.549V633.57H422.378V669.647ZM460.674 669.647H497.844V633.57H460.674V669.647ZM498.969 669.647H536.14V633.57H498.969V669.647ZM537.265 669.647H574.435V633.57H537.265V669.647ZM575.56 669.647H612.73V633.57H575.56V669.647ZM613.855 669.647H651.027V633.57H613.855V669.647ZM652.152 669.647H689.322V633.57H652.152V669.647ZM690.447 669.647H727.617V633.57H690.447V669.647ZM728.742 669.647H765.913V633.57H728.742V669.647ZM767.038 669.647H804.208V633.57H767.038V669.647ZM805.333 669.647H842.504V633.57H805.333V669.647ZM843.629 669.647H880.799V633.57H843.629V669.647ZM881.924 669.647H919.094V633.57H881.924V669.647ZM920.219 669.647H957.39V633.57H920.219V669.647ZM958.515 669.647H995.685V633.57H958.515V669.647ZM996.81 669.647H1033.98V633.57H996.81V669.647ZM1035.11 669.647H1072.28V633.57H1035.11V669.647ZM1073.4 669.647H1110.57V633.57H1073.4V669.647ZM1111.7 669.647H1148.87V633.57H1111.7V669.647ZM1149.99 669.647H1187.16V633.57H1149.99V669.647ZM1188.29 669.647H1225.46V633.57H1188.29V669.647ZM1226.58 669.647H1263.75V633.57H1226.58V669.647ZM1264.88 669.647H1302.05V633.57H1264.88V669.647ZM1303.17 669.647H1340.34V633.57H1303.17V669.647ZM1341.47 669.647H1378.64V633.57H1341.47V669.647ZM1379.76 669.647H1416.94V633.57H1379.76V669.647ZM1418.06 669.647H1455.23V633.57H1418.06V669.647ZM1456.36 669.647H1493.53V633.57H1456.36V669.647ZM1494.65 669.647H1531.82V633.57H1494.65V669.647ZM1532.95 669.647H1570.12V633.57H1532.95V669.647ZM1571.24 669.647H1608.41V633.57H1571.24V669.647ZM1609.54 669.647H1646.71V633.57H1609.54V669.647ZM1647.83 669.647H1685V633.57H1647.83V669.647ZM1686.13 669.647H1723.3V633.57H1686.13V669.647ZM1724.42 669.647H1761.59V633.57H1724.42V669.647ZM1762.72 669.647H1799.89V633.57H1762.72V669.647ZM1801.02 669.647H1838.18V633.57H1801.02V669.647ZM1839.31 669.647H1876.48V633.57H1839.31V669.647ZM1877.61 669.647H1914.78V633.57H1877.61V669.647ZM1915.9 669.647H1953.07V633.57H1915.9V669.647ZM1954.2 669.647H1991.37V633.57H1954.2V669.647ZM1992.49 669.647H2029.66V633.57H1992.49V669.647ZM2030.79 669.647H2067.96V633.57H2030.79V669.647ZM2069.08 669.647H2106.25V633.57H2069.08V669.647ZM2107.38 669.647H2144.55V633.57H2107.38V669.647ZM2145.67 669.647H2182.84V633.57H2145.67V669.647ZM2183.97 669.647H2221.14V633.57H2183.97V669.647ZM1.12891 632.445H38.2998V596.367H1.12891V632.445ZM39.4248 632.445H76.5938V596.367H39.4248V632.445ZM77.7188 632.445H114.89V596.367H77.7188V632.445ZM116.015 632.445H153.185V596.367H116.015V632.445ZM154.31 632.445H191.481V596.367H154.31V632.445ZM192.606 632.445H229.776V596.367H192.606V632.445ZM230.901 632.445H268.071V596.367H230.901V632.445ZM269.196 632.445H306.365V596.367H269.196V632.445ZM307.49 632.445H344.663V596.367H307.49V632.445ZM345.788 632.445H382.958V596.367H345.788V632.445ZM384.083 632.445H421.253V596.367H384.083V632.445ZM422.378 632.445H459.549V596.367H422.378V632.445ZM460.674 632.445H497.844V596.367H460.674V632.445ZM498.969 632.445H536.14V596.367H498.969V632.445ZM537.265 632.445H574.435V596.367H537.265V632.445ZM575.56 632.445H612.73V596.367H575.56V632.445ZM613.855 632.445H651.027V596.367H613.855V632.445ZM652.152 632.445H689.322V596.367H652.152V632.445ZM690.447 632.445H727.617V596.367H690.447V632.445ZM728.742 632.445H765.913V596.367H728.742V632.445ZM767.038 632.445H804.208V596.367H767.038V632.445ZM805.333 632.445H842.504V596.367H805.333V632.445ZM843.629 632.445H880.799V596.367H843.629V632.445ZM881.924 632.445H919.094V596.367H881.924V632.445ZM920.219 632.445H957.39V596.367H920.219V632.445ZM958.515 632.445H995.685V596.367H958.515V632.445ZM996.81 632.445H1033.98V596.367H996.81V632.445ZM1035.11 632.445H1072.28V596.367H1035.11V632.445ZM1073.4 632.445H1110.57V596.367H1073.4V632.445ZM1111.7 632.445H1148.87V596.367H1111.7V632.445ZM1149.99 632.445H1187.16V596.367H1149.99V632.445ZM1188.29 632.445H1225.46V596.367H1188.29V632.445ZM1226.58 632.445H1263.75V596.367H1226.58V632.445ZM1264.88 632.445H1302.05V596.367H1264.88V632.445ZM1303.17 632.445H1340.34V596.367H1303.17V632.445ZM1341.47 632.445H1378.64V596.367H1341.47V632.445ZM1379.76 632.445H1416.94V596.367H1379.76V632.445ZM1418.06 632.445H1455.23V596.367H1418.06V632.445ZM1456.36 632.445H1493.53V596.367H1456.36V632.445ZM1494.65 632.445H1531.82V596.367H1494.65V632.445ZM1532.95 632.445H1570.12V596.367H1532.95V632.445ZM1571.24 632.445H1608.41V596.367H1571.24V632.445ZM1609.54 632.445H1646.71V596.367H1609.54V632.445ZM1647.83 632.445H1685V596.367H1647.83V632.445ZM1686.13 632.445H1723.3V596.367H1686.13V632.445ZM1724.42 632.445H1761.59V596.367H1724.42V632.445ZM1762.72 632.445H1799.89V596.367H1762.72V632.445ZM1801.02 632.445H1838.18V596.367H1801.02V632.445ZM1839.31 632.445H1876.48V596.367H1839.31V632.445ZM1877.61 632.445H1914.78V596.367H1877.61V632.445ZM1915.9 632.445H1953.07V596.367H1915.9V632.445ZM1954.2 632.445H1991.37V596.367H1954.2V632.445ZM1992.49 632.445H2029.66V596.367H1992.49V632.445ZM2030.79 632.445H2067.96V596.367H2030.79V632.445ZM2069.08 632.445H2106.25V596.367H2069.08V632.445ZM2107.38 632.445H2144.55V596.367H2107.38V632.445ZM2145.67 632.445H2182.84V596.367H2145.67V632.445ZM2183.97 632.445H2221.14V596.367H2183.97V632.445ZM1.12891 595.242H38.2998V559.164H1.12891V595.242ZM39.4248 595.242H76.5938V559.164H39.4248V595.242ZM77.7188 595.242H114.89V559.164H77.7188V595.242ZM116.015 595.242H153.185V559.164H116.015V595.242ZM154.31 595.242H191.481V559.164H154.31V595.242ZM192.606 595.242H229.776V559.164H192.606V595.242ZM230.901 595.242H268.071V559.164H230.901V595.242ZM269.196 595.242H306.365V559.164H269.196V595.242ZM307.49 595.242H344.663V559.164H307.49V595.242ZM345.788 595.242H382.958V559.164H345.788V595.242ZM384.083 595.242H421.253V559.164H384.083V595.242ZM422.378 595.242H459.549V559.164H422.378V595.242ZM460.674 595.242H497.844V559.164H460.674V595.242ZM498.969 595.242H536.14V559.164H498.969V595.242ZM537.265 595.242H574.435V559.164H537.265V595.242ZM575.56 595.242H612.73V559.164H575.56V595.242ZM613.855 595.242H651.027V559.164H613.855V595.242ZM652.152 595.242H689.322V559.164H652.152V595.242ZM690.447 595.242H727.617V559.164H690.447V595.242ZM728.742 595.242H765.913V559.164H728.742V595.242ZM767.038 595.242H804.208V559.164H767.038V595.242ZM805.333 595.242H842.504V559.164H805.333V595.242ZM843.629 595.242H880.799V559.164H843.629V595.242ZM881.924 595.242H919.094V559.164H881.924V595.242ZM920.219 595.242H957.39V559.164H920.219V595.242ZM958.515 595.242H995.685V559.164H958.515V595.242ZM996.81 595.242H1033.98V559.164H996.81V595.242ZM1035.11 595.242H1072.28V559.164H1035.11V595.242ZM1073.4 595.242H1110.57V559.164H1073.4V595.242ZM1111.7 595.242H1148.87V559.164H1111.7V595.242ZM1149.99 595.242H1187.16V559.164H1149.99V595.242ZM1188.29 595.242H1225.46V559.164H1188.29V595.242ZM1226.58 595.242H1263.75V559.164H1226.58V595.242ZM1264.88 595.242H1302.05V559.164H1264.88V595.242ZM1303.17 595.242H1340.34V559.164H1303.17V595.242ZM1341.47 595.242H1378.64V559.164H1341.47V595.242ZM1379.76 595.242H1416.94V559.164H1379.76V595.242ZM1418.06 595.242H1455.23V559.164H1418.06V595.242ZM1456.36 595.242H1493.53V559.164H1456.36V595.242ZM1494.65 595.242H1531.82V559.164H1494.65V595.242ZM1532.95 595.242H1570.12V559.164H1532.95V595.242ZM1571.24 595.242H1608.41V559.164H1571.24V595.242ZM1609.54 595.242H1646.71V559.164H1609.54V595.242ZM1647.83 595.242H1685V559.164H1647.83V595.242ZM1686.13 595.242H1723.3V559.164H1686.13V595.242ZM1724.42 595.242H1761.59V559.164H1724.42V595.242ZM1762.72 595.242H1799.89V559.164H1762.72V595.242ZM1801.02 595.242H1838.18V559.164H1801.02V595.242ZM1839.31 595.242H1876.48V559.164H1839.31V595.242ZM1877.61 595.242H1914.78V559.164H1877.61V595.242ZM1915.9 595.242H1953.07V559.164H1915.9V595.242ZM1954.2 595.242H1991.37V559.164H1954.2V595.242ZM1992.49 595.242H2029.66V559.164H1992.49V595.242ZM2030.79 595.242H2067.96V559.164H2030.79V595.242ZM2069.08 595.242H2106.25V559.164H2069.08V595.242ZM2107.38 595.242H2144.55V559.164H2107.38V595.242ZM2145.67 595.242H2182.84V559.164H2145.67V595.242ZM2183.97 595.242H2221.14V559.164H2183.97V595.242ZM1.12891 558.039H38.2998V521.963H1.12891V558.039ZM39.4248 558.039H76.5938V521.963H39.4248V558.039ZM77.7188 558.039H114.89V521.963H77.7188V558.039ZM116.015 558.039H153.185L153.186 521.963H116.015V558.039ZM154.31 558.039H191.481V521.963H154.311L154.31 558.039ZM192.606 558.039H229.776V521.963H192.606V558.039ZM230.901 558.039H268.071V521.963H230.901V558.039ZM269.196 558.039H306.365L306.366 521.963H269.196V558.039ZM307.49 558.039H344.663V521.963H307.491L307.49 558.039ZM345.788 558.039H382.958V521.963H345.788V558.039ZM384.083 558.039H421.253V521.963H384.083V558.039ZM422.378 558.039H459.549V521.963H422.378V558.039ZM460.674 558.039H497.844V521.963H460.674V558.039ZM498.969 558.039H536.14V521.963H498.969V558.039ZM537.265 558.039H574.435V521.963H537.265V558.039ZM575.56 558.039H612.73V521.963H575.56V558.039ZM613.855 558.039H651.027V521.963H613.855V558.039ZM652.152 558.039H689.322V521.963H652.152V558.039ZM690.447 558.039H727.617V521.963H690.447V558.039ZM728.742 558.039H765.913V521.963H728.742V558.039ZM767.038 558.039H804.208V521.963H767.038V558.039ZM805.333 558.039H842.504V521.963H805.333V558.039ZM843.629 558.039H880.799V521.963H843.629V558.039ZM881.924 558.039H919.094V521.963H881.924V558.039ZM920.219 558.039H957.39V521.963H920.219V558.039ZM958.515 558.039H995.685L995.686 521.963H958.515V558.039ZM996.81 558.039H1033.98V521.963H996.811L996.81 558.039ZM1035.11 558.039H1072.28V521.963H1035.11V558.039ZM1073.4 558.039H1110.57V521.963H1073.4V558.039ZM1111.7 558.039H1148.87V521.963H1111.7V558.039ZM1149.99 558.039H1187.16V521.963H1149.99V558.039ZM1188.29 558.039H1225.46V521.963H1188.29V558.039ZM1226.58 558.039H1263.75V521.963H1226.58V558.039ZM1264.88 558.039H1302.05V521.963H1264.88V558.039ZM1303.17 558.039H1340.34V521.963H1303.17V558.039ZM1341.47 558.039H1378.64V521.963H1341.47V558.039ZM1379.76 558.039H1416.94L1416.94 521.963H1379.76V558.039ZM1418.06 558.039H1455.23V521.963H1418.06L1418.06 558.039ZM1456.36 558.039H1493.53V521.963H1456.36V558.039ZM1494.65 558.039H1531.82V521.963H1494.65V558.039ZM1532.95 558.039H1570.12V521.963H1532.95V558.039ZM1571.24 558.039H1608.41V521.963H1571.24V558.039ZM1609.54 558.039H1646.71V521.963H1609.54V558.039ZM1647.83 558.039H1685V521.963H1647.83V558.039ZM1686.13 558.039H1723.3V521.963H1686.13V558.039ZM1724.42 558.039H1761.59L1761.59 521.963H1724.42V558.039ZM1762.72 558.039H1799.89V521.963H1762.72L1762.72 558.039ZM1801.02 558.039H1838.18L1838.19 521.963H1801.02V558.039ZM1839.31 558.039H1876.48V521.963H1839.31L1839.31 558.039ZM1877.61 558.039H1914.78V521.963H1877.61V558.039ZM1915.9 558.039H1953.07V521.963H1915.9V558.039ZM1954.2 558.039H1991.37V521.963H1954.2V558.039ZM1992.49 558.039H2029.66V521.963H1992.49V558.039ZM2030.79 558.039H2067.96V521.963H2030.79V558.039ZM2069.08 558.039H2106.25L2106.25 521.963H2069.08V558.039ZM2107.38 558.039H2144.55V521.963H2107.38L2107.38 558.039ZM2145.67 558.039H2182.84V521.963H2145.67V558.039ZM2183.97 558.039H2221.14V521.963H2183.97V558.039ZM1.12891 520.838H38.2998V484.759H1.12891V520.838ZM39.4248 520.838H76.5938V484.759H39.4248V520.838ZM77.7188 520.838H114.89V484.759H77.7188V520.838ZM116.015 520.838H153.186V484.759H116.015V520.838ZM154.311 520.838H191.481V484.759H154.311V520.838ZM192.606 520.838H229.776V484.759H192.606V520.838ZM230.901 520.838H268.071V484.759H230.901V520.838ZM269.196 520.838H306.366V484.759H269.196V520.838ZM307.491 520.838H344.663V484.759H307.491V520.838ZM345.788 520.838H382.958V484.759H345.788V520.838ZM384.083 520.838H421.253V484.759H384.083V520.838ZM422.378 520.838H459.549V484.759H422.378V520.838ZM460.674 520.838H497.844V484.759H460.674V520.838ZM498.969 520.838H536.14V484.759H498.969V520.838ZM537.265 520.838H574.435V484.759H537.265V520.838ZM575.56 520.838H612.73V484.759H575.56V520.838ZM613.855 520.838H651.027V484.759H613.855V520.838ZM652.152 520.838H689.322V484.759H652.152V520.838ZM690.447 520.838H727.617V484.759H690.447V520.838ZM728.742 520.838H765.913V484.759H728.742V520.838ZM767.038 520.838H804.208V484.759H767.038V520.838ZM805.333 520.838H842.504V484.759H805.333V520.838ZM843.629 520.838H880.799V484.759H843.629V520.838ZM881.924 520.838H919.094V484.759H881.924V520.838ZM920.219 520.838H957.39V484.759H920.219V520.838ZM958.515 520.838H995.686V484.759H958.515V520.838ZM996.811 520.838H1033.98V484.759H996.811V520.838ZM1035.11 520.838H1072.28V484.759H1035.11V520.838ZM1073.4 520.838H1110.57V484.759H1073.4V520.838ZM1111.7 520.838H1148.87V484.759H1111.7V520.838ZM1149.99 520.838H1187.16V484.759H1149.99V520.838ZM1188.29 520.838H1225.46V484.759H1188.29V520.838ZM1226.58 520.838H1263.75V484.759H1226.58V520.838ZM1264.88 520.838H1302.05V484.759H1264.88V520.838ZM1303.17 520.838H1340.34V484.759H1303.17V520.838ZM1341.47 520.838H1378.64V484.759H1341.47V520.838ZM1379.76 520.838H1416.94V484.759H1379.76V520.838ZM1418.06 520.838H1455.23V484.759H1418.06V520.838ZM1456.36 520.838H1493.53V484.759H1456.36V520.838ZM1494.65 520.838H1531.82V484.759H1494.65V520.838ZM1532.95 520.838H1570.12V484.759H1532.95V520.838ZM1571.24 520.838H1608.41V484.759H1571.24V520.838ZM1609.54 520.838H1646.71V484.759H1609.54V520.838ZM1647.83 520.838H1685V484.759H1647.83V520.838ZM1686.13 520.838H1723.3V484.759H1686.13V520.838ZM1724.42 520.838H1761.59V484.759H1724.42V520.838ZM1762.72 520.838H1799.89V484.759H1762.72V520.838ZM1801.02 520.838H1838.19V484.759H1801.02V520.838ZM1839.31 520.838H1876.48V484.759H1839.31V520.838ZM1877.61 520.838H1914.78V484.759H1877.61V520.838ZM1915.9 520.838H1953.07V484.759H1915.9V520.838ZM1954.2 520.838H1991.37V484.759H1954.2V520.838ZM1992.49 520.838H2029.66V484.759H1992.49V520.838ZM2030.79 520.838H2067.96V484.759H2030.79V520.838ZM2069.08 520.838H2106.25V484.759H2069.08V520.838ZM2107.38 520.838H2144.55V484.759H2107.38V520.838ZM2145.67 520.838H2182.84V484.759H2145.67V520.838ZM2183.97 520.838H2221.14V484.759H2183.97V520.838ZM1.12891 483.634H38.2998V447.557H1.12891V483.634ZM39.4248 483.634H76.5938V447.557H39.4248V483.634ZM77.7188 483.634H114.89V447.557H77.7188V483.634ZM116.015 483.634H153.186V447.557H116.015V483.634ZM154.311 483.634H191.481V447.557H154.311V483.634ZM192.606 483.634H229.776V447.557H192.606V483.634ZM230.901 483.634H268.071V447.557H230.901V483.634ZM269.196 483.634H306.366V447.557H269.196V483.634ZM307.491 483.634H344.663V447.557H307.491V483.634ZM345.788 483.634H382.958V447.557H345.788V483.634ZM384.083 483.634H421.253V447.557H384.083V483.634ZM422.378 483.634H459.549V447.557H422.378V483.634ZM460.674 483.634H497.844V447.557H460.674V483.634ZM498.969 483.634H536.14V447.557H498.969V483.634ZM537.265 483.634H574.435V447.557H537.265V483.634ZM575.56 483.634H612.73V447.557H575.56V483.634ZM613.855 483.634H651.027V447.557H613.855V483.634ZM652.152 483.634H689.322V447.557H652.152V483.634ZM690.447 483.634H727.617V447.557H690.447V483.634ZM728.742 483.634H765.913V447.557H728.742V483.634ZM767.038 483.634H804.208V447.557H767.038V483.634ZM805.333 483.634H842.504V447.557H805.333V483.634ZM843.629 483.634H880.799V447.557H843.629V483.634ZM881.924 483.634H919.094V447.557H881.924V483.634ZM920.219 483.634H957.39V447.557H920.219V483.634ZM958.515 483.634H995.686V447.557H958.515V483.634ZM996.811 483.634H1033.98V447.557H996.811V483.634ZM1035.11 483.634H1072.28V447.557H1035.11V483.634ZM1073.4 483.634H1110.57V447.557H1073.4V483.634ZM1111.7 483.634H1148.87V447.557H1111.7V483.634ZM1149.99 483.634H1187.16V447.557H1149.99V483.634ZM1188.29 483.634H1225.46V447.557H1188.29V483.634ZM1226.58 483.634H1263.75V447.557H1226.58V483.634ZM1264.88 483.634H1302.05V447.557H1264.88V483.634ZM1303.17 483.634H1340.34V447.557H1303.17V483.634ZM1341.47 483.634H1378.64V447.557H1341.47V483.634ZM1379.76 483.634H1416.94V447.557H1379.76V483.634ZM1418.06 483.634H1455.23V447.557H1418.06V483.634ZM1456.36 483.634H1493.53V447.557H1456.36V483.634ZM1494.65 483.634H1531.82V447.557H1494.65V483.634ZM1532.95 483.634H1570.12V447.557H1532.95V483.634ZM1571.24 483.634H1608.41V447.557H1571.24V483.634ZM1609.54 483.634H1646.71V447.557H1609.54V483.634ZM1647.83 483.634H1685V447.557H1647.83V483.634ZM1686.13 483.634H1723.3V447.557H1686.13V483.634ZM1724.42 483.634H1761.59V447.557H1724.42V483.634ZM1762.72 483.634H1799.89V447.557H1762.72V483.634ZM1801.02 483.634H1838.19V447.557H1801.02V483.634ZM1839.31 483.634H1876.48V447.557H1839.31V483.634ZM1877.61 483.634H1914.78V447.557H1877.61V483.634ZM1915.9 483.634H1953.07V447.557H1915.9V483.634ZM1954.2 483.634H1991.37V447.557H1954.2V483.634ZM1992.49 483.634H2029.66V447.557H1992.49V483.634ZM2030.79 483.634H2067.96V447.557H2030.79V483.634ZM2069.08 483.634H2106.25V447.557H2069.08V483.634ZM2107.38 483.634H2144.55V447.557H2107.38V483.634ZM2145.67 483.634H2182.84V447.557H2145.67V483.634ZM2183.97 483.634H2221.14V447.557H2183.97V483.634ZM1.12891 446.432H38.2998V410.354H1.12891V446.432ZM39.4248 446.432H76.5938V410.354H39.4248V446.432ZM77.7188 446.432H114.89V410.354H77.7188V446.432ZM116.015 446.432H153.186V410.354H116.015V446.432ZM154.311 446.432H191.481V410.354H154.311V446.432ZM192.606 446.432H229.776V410.354H192.606V446.432ZM230.901 446.432H268.071V410.354H230.901V446.432ZM269.196 446.432H306.366V410.354H269.196V446.432ZM307.491 446.432H344.663V410.354H307.491V446.432ZM345.788 446.432H382.958V410.354H345.788V446.432ZM384.083 446.432H421.253V410.354H384.083V446.432ZM422.378 446.432H459.549V410.354H422.378V446.432ZM460.674 446.432H497.844V410.354H460.674V446.432ZM498.969 446.432H536.14V410.354H498.969V446.432ZM537.265 446.432H574.435V410.354H537.265V446.432ZM575.56 446.432H612.73V410.354H575.56V446.432ZM613.855 446.432H651.027V410.354H613.855V446.432ZM652.152 446.432H689.322V410.354H652.152V446.432ZM690.447 446.432H727.617V410.354H690.447V446.432ZM728.742 446.432H765.913V410.354H728.742V446.432ZM767.038 446.432H804.208V410.354H767.038V446.432ZM805.333 446.432H842.504V410.354H805.333V446.432ZM843.629 446.432H880.799V410.354H843.629V446.432ZM881.924 446.432H919.094V410.354H881.924V446.432ZM920.219 446.432H957.39V410.354H920.219V446.432ZM958.515 446.432H995.686V410.354H958.515V446.432ZM996.811 446.432H1033.98V410.354H996.811V446.432ZM1035.11 446.432H1072.28V410.354H1035.11V446.432ZM1073.4 446.432H1110.57V410.354H1073.4V446.432ZM1111.7 446.432H1148.87V410.354H1111.7V446.432ZM1149.99 446.432H1187.16V410.354H1149.99V446.432ZM1188.29 446.432H1225.46V410.354H1188.29V446.432ZM1226.58 446.432H1263.75V410.354H1226.58V446.432ZM1264.88 446.432H1302.05V410.354H1264.88V446.432ZM1303.17 446.432H1340.34V410.354H1303.17V446.432ZM1341.47 446.432H1378.64V410.354H1341.47V446.432ZM1379.76 446.432H1416.94V410.354H1379.76V446.432ZM1418.06 446.432H1455.23V410.354H1418.06V446.432ZM1456.36 446.432H1493.53V410.354H1456.36V446.432ZM1494.65 446.432H1531.82V410.354H1494.65V446.432ZM1532.95 446.432H1570.12V410.354H1532.95V446.432ZM1571.24 446.432H1608.41V410.354H1571.24V446.432ZM1609.54 446.432H1646.71V410.354H1609.54V446.432ZM1647.83 446.432H1685V410.354H1647.83V446.432ZM1686.13 446.432H1723.3V410.354H1686.13V446.432ZM1724.42 446.432H1761.59V410.354H1724.42V446.432ZM1762.72 446.432H1799.89V410.354H1762.72V446.432ZM1801.02 446.432H1838.19V410.354H1801.02V446.432ZM1839.31 446.432H1876.48V410.354H1839.31V446.432ZM1877.61 446.432H1914.78V410.354H1877.61V446.432ZM1915.9 446.432H1953.07V410.354H1915.9V446.432ZM1954.2 446.432H1991.37V410.354H1954.2V446.432ZM1992.49 446.432H2029.66V410.354H1992.49V446.432ZM2030.79 446.432H2067.96V410.354H2030.79V446.432ZM2069.08 446.432H2106.25V410.354H2069.08V446.432ZM2107.38 446.432H2144.55V410.354H2107.38V446.432ZM2145.67 446.432H2182.84V410.354H2145.67V446.432ZM2183.97 446.432H2221.14V410.354H2183.97V446.432ZM1.12891 409.229H38.2998V373.151H1.12891V409.229ZM39.4248 409.229H76.5938V373.151H39.4248V409.229ZM77.7188 409.229H114.89V373.151H77.7188V409.229ZM116.015 409.229H153.186V373.151H116.015V409.229ZM154.311 409.229H191.481V373.151H154.311V409.229ZM192.606 409.229H229.776V373.151H192.606V409.229ZM230.901 409.229H268.071V373.151H230.901V409.229ZM269.196 409.229H306.366V373.151H269.196V409.229ZM307.491 409.229H344.663V373.151H307.491V409.229ZM345.788 409.229H382.958V373.151H345.788V409.229ZM384.083 409.229H421.253V373.151H384.083V409.229ZM422.378 409.229H459.549V373.151H422.378V409.229ZM460.674 409.229H497.844V373.151H460.674V409.229ZM498.969 409.229H536.14V373.151H498.969V409.229ZM537.265 409.229H574.435V373.151H537.265V409.229ZM575.56 409.229H612.73V373.151H575.56V409.229ZM613.855 409.229H651.027V373.151H613.855V409.229ZM652.152 409.229H689.322V373.151H652.152V409.229ZM690.447 409.229H727.617V373.151H690.447V409.229ZM728.742 409.229H765.913V373.151H728.742V409.229ZM767.038 409.229H804.208V373.151H767.038V409.229ZM805.333 409.229H842.504V373.151H805.333V409.229ZM843.629 409.229H880.799V373.151H843.629V409.229ZM881.924 409.229H919.094V373.151H881.924V409.229ZM920.219 409.229H957.39V373.151H920.219V409.229ZM958.515 409.229H995.686V373.151H958.515V409.229ZM996.811 409.229H1033.98V373.151H996.811V409.229ZM1035.11 409.229H1072.28V373.151H1035.11V409.229ZM1073.4 409.229H1110.57V373.151H1073.4V409.229ZM1111.7 409.229H1148.87V373.151H1111.7V409.229ZM1149.99 409.229H1187.16V373.151H1149.99V409.229ZM1188.29 409.229H1225.46V373.151H1188.29V409.229ZM1226.58 409.229H1263.75V373.151H1226.58V409.229ZM1264.88 409.229H1302.05V373.151H1264.88V409.229ZM1303.17 409.229H1340.34V373.151H1303.17V409.229ZM1341.47 409.229H1378.64V373.151H1341.47V409.229ZM1379.76 409.229H1416.94V373.151H1379.76V409.229ZM1418.06 409.229H1455.23V373.151H1418.06V409.229ZM1456.36 409.229H1493.53V373.151H1456.36V409.229ZM1494.65 409.229H1531.82V373.151H1494.65V409.229ZM1532.95 409.229H1570.12V373.151H1532.95V409.229ZM1571.24 409.229H1608.41V373.151H1571.24V409.229ZM1609.54 409.229H1646.71V373.151H1609.54V409.229ZM1647.83 409.229H1685V373.151H1647.83V409.229ZM1686.13 409.229H1723.3V373.151H1686.13V409.229ZM1724.42 409.229H1761.59V373.151H1724.42V409.229ZM1762.72 409.229H1799.89V373.151H1762.72V409.229ZM1801.02 409.229H1838.19V373.151H1801.02V409.229ZM1839.31 409.229H1876.48V373.151H1839.31V409.229ZM1877.61 409.229H1914.78V373.151H1877.61V409.229ZM1915.9 409.229H1953.07V373.151H1915.9V409.229ZM1954.2 409.229H1991.37V373.151H1954.2V409.229ZM1992.49 409.229H2029.66V373.151H1992.49V409.229ZM2030.79 409.229H2067.96V373.151H2030.79V409.229ZM2069.08 409.229H2106.25V373.151H2069.08V409.229ZM2107.38 409.229H2144.55V373.151H2107.38V409.229ZM2145.67 409.229H2182.84V373.151H2145.67V409.229ZM2183.97 409.229H2221.14V373.151H2183.97V409.229ZM1.12891 372.026H38.2998V335.948H1.12891V372.026ZM39.4248 372.026H76.5938V335.948H39.4248V372.026ZM77.7188 372.026H114.89V335.948H77.7188V372.026ZM116.015 372.026H153.186V335.948H116.015V372.026ZM154.311 372.026H191.481V335.948H154.311V372.026ZM192.606 372.026H229.776V335.948H192.606V372.026ZM230.901 372.026H268.071V335.948H230.901V372.026ZM269.196 372.026H306.366V335.948H269.196V372.026ZM307.491 372.026H344.663V335.948H307.491V372.026ZM345.788 372.026H382.958V335.948H345.788V372.026ZM384.083 372.026H421.253V335.948H384.083V372.026ZM422.378 372.026H459.549V335.948H422.378V372.026ZM460.674 372.026H497.844V335.948H460.674V372.026ZM498.969 372.026H536.14V335.948H498.969V372.026ZM537.265 372.026H574.435V335.948H537.265V372.026ZM575.56 372.026H612.73V335.948H575.56V372.026ZM613.855 372.026H651.027V335.948H613.855V372.026ZM652.152 372.026H689.322V335.948H652.152V372.026ZM690.447 372.026H727.617V335.948H690.447V372.026ZM728.742 372.026H765.913V335.948H728.742V372.026ZM767.038 372.026H804.208V335.948H767.038V372.026ZM805.333 372.026H842.504V335.948H805.333V372.026ZM843.629 372.026H880.799V335.948H843.629V372.026ZM881.924 372.026H919.094V335.948H881.924V372.026ZM920.219 372.026H957.39V335.948H920.219V372.026ZM958.515 372.026H995.686V335.948H958.515V372.026ZM996.811 372.026H1033.98V335.948H996.811V372.026ZM1035.11 372.026H1072.28V335.948H1035.11V372.026ZM1073.4 372.026H1110.57V335.948H1073.4V372.026ZM1111.7 372.026H1148.87V335.948H1111.7V372.026ZM1149.99 372.026H1187.16V335.948H1149.99V372.026ZM1188.29 372.026H1225.46V335.948H1188.29V372.026ZM1226.58 372.026H1263.75V335.948H1226.58V372.026ZM1264.88 372.026H1302.05V335.948H1264.88V372.026ZM1303.17 372.026H1340.34V335.948H1303.17V372.026ZM1341.47 372.026H1378.64V335.948H1341.47V372.026ZM1379.76 372.026H1416.94V335.948H1379.76V372.026ZM1418.06 372.026H1455.23V335.948H1418.06V372.026ZM1456.36 372.026H1493.53V335.948H1456.36V372.026ZM1494.65 372.026H1531.82V335.948H1494.65V372.026ZM1532.95 372.026H1570.12V335.948H1532.95V372.026ZM1571.24 372.026H1608.41V335.948H1571.24V372.026ZM1609.54 372.026H1646.71V335.948H1609.54V372.026ZM1647.83 372.026H1685V335.948H1647.83V372.026ZM1686.13 372.026H1723.3V335.948H1686.13V372.026ZM1724.42 372.026H1761.59V335.948H1724.42V372.026ZM1762.72 372.026H1799.89V335.948H1762.72V372.026ZM1801.02 372.026H1838.19V335.948H1801.02V372.026ZM1839.31 372.026H1876.48V335.948H1839.31V372.026ZM1877.61 372.026H1914.78V335.948H1877.61V372.026ZM1915.9 372.026H1953.07V335.948H1915.9V372.026ZM1954.2 372.026H1991.37V335.948H1954.2V372.026ZM1992.49 372.026H2029.66V335.948H1992.49V372.026ZM2030.79 372.026H2067.96V335.948H2030.79V372.026ZM2069.08 372.026H2106.25V335.948H2069.08V372.026ZM2107.38 372.026H2144.55V335.948H2107.38V372.026ZM2145.67 372.026H2182.84V335.948H2145.67V372.026ZM2183.97 372.026H2221.14V335.948H2183.97V372.026ZM1.12891 334.823H38.2998V298.746H1.12891V334.823ZM39.4248 334.823H76.5938V298.746H39.4248V334.823ZM77.7188 334.823H114.89V298.746H77.7188V334.823ZM116.015 334.823H153.186V298.746H116.015V334.823ZM154.311 334.823H191.481V298.746H154.311V334.823ZM192.606 334.823H229.776V298.746H192.606V334.823ZM230.901 334.823H268.071V298.746H230.901V334.823ZM269.196 334.823H306.366V298.746H269.196V334.823ZM307.491 334.823H344.663V298.746H307.491V334.823ZM345.788 334.823H382.958V298.746H345.788V334.823ZM384.083 334.823H421.253V298.746H384.083V334.823ZM422.378 334.823H459.549V298.746H422.378V334.823ZM460.674 334.823H497.844V298.746H460.674V334.823ZM498.969 334.823H536.14V298.746H498.969V334.823ZM537.265 334.823H574.435V298.746H537.265V334.823ZM575.56 334.823H612.73V298.746H575.56V334.823ZM613.855 334.823H651.027V298.746H613.855V334.823ZM652.152 334.823H689.322V298.746H652.152V334.823ZM690.447 334.823H727.617V298.746H690.447V334.823ZM728.742 334.823H765.913V298.746H728.742V334.823ZM767.038 334.823H804.208V298.746H767.038V334.823ZM805.333 334.823H842.504V298.746H805.333V334.823ZM843.629 334.823H880.799V298.746H843.629V334.823ZM881.924 334.823H919.094V298.746H881.924V334.823ZM920.219 334.823H957.39V298.746H920.219V334.823ZM958.515 334.823H995.686V298.746H958.515V334.823ZM996.811 334.823H1033.98V298.746H996.811V334.823ZM1035.11 334.823H1072.28V298.746H1035.11V334.823ZM1073.4 334.823H1110.57V298.746H1073.4V334.823ZM1111.7 334.823H1148.87V298.746H1111.7V334.823ZM1149.99 334.823H1187.16V298.746H1149.99V334.823ZM1188.29 334.823H1225.46V298.746H1188.29V334.823ZM1226.58 334.823H1263.75V298.746H1226.58V334.823ZM1264.88 334.823H1302.05V298.746H1264.88V334.823ZM1303.17 334.823H1340.34V298.746H1303.17V334.823ZM1341.47 334.823H1378.64V298.746H1341.47V334.823ZM1379.76 334.823H1416.94V298.746H1379.76V334.823ZM1418.06 334.823H1455.23V298.746H1418.06V334.823ZM1456.36 334.823H1493.53V298.746H1456.36V334.823ZM1494.65 334.823H1531.82V298.746H1494.65V334.823ZM1532.95 334.823H1570.12V298.746H1532.95V334.823ZM1571.24 334.823H1608.41V298.746H1571.24V334.823ZM1609.54 334.823H1646.71V298.746H1609.54V334.823ZM1647.83 334.823H1685V298.746H1647.83V334.823ZM1686.13 334.823H1723.3V298.746H1686.13V334.823ZM1724.42 334.823H1761.59V298.746H1724.42V334.823ZM1762.72 334.823H1799.89V298.746H1762.72V334.823ZM1801.02 334.823H1838.19V298.746H1801.02V334.823ZM1839.31 334.823H1876.48V298.746H1839.31V334.823ZM1877.61 334.823H1914.78V298.746H1877.61V334.823ZM1915.9 334.823H1953.07V298.746H1915.9V334.823ZM1954.2 334.823H1991.37V298.746H1954.2V334.823ZM1992.49 334.823H2029.66V298.746H1992.49V334.823ZM2030.79 334.823H2067.96V298.746H2030.79V334.823ZM2069.08 334.823H2106.25V298.746H2069.08V334.823ZM2107.38 334.823H2144.55V298.746H2107.38V334.823ZM2145.67 334.823H2182.84V298.746H2145.67V334.823ZM2183.97 334.823H2221.14V298.746H2183.97V334.823ZM1.12891 297.621H38.2998V261.544H1.12891V297.621ZM39.4248 297.621H76.5938V261.544H39.4248V297.621ZM77.7188 297.621H114.89V261.544H77.7188V297.621ZM116.015 297.621H153.186V261.544H116.015V297.621ZM154.311 297.621H191.481V261.544H154.311V297.621ZM192.606 297.621H229.776V261.544H192.606V297.621ZM230.901 297.621H268.071V261.544H230.901V297.621ZM269.196 297.621H306.366V261.544H269.196V297.621ZM307.491 297.621H344.663V261.544H307.491V297.621ZM345.788 297.621H382.958V261.544H345.788V297.621ZM384.083 297.621H421.253V261.544H384.083V297.621ZM422.378 297.621H459.549V261.544H422.378V297.621ZM460.674 297.621H497.844V261.544H460.674V297.621ZM498.969 297.621H536.14V261.544H498.969V297.621ZM537.265 297.621H574.435V261.544H537.265V297.621ZM575.56 297.621H612.73V261.544H575.56V297.621ZM613.855 297.621H651.027V261.544H613.855V297.621ZM652.152 297.621H689.322V261.544H652.152V297.621ZM690.447 297.621H727.617V261.544H690.447V297.621ZM728.742 297.621H765.913V261.544H728.742V297.621ZM767.038 297.621H804.208V261.544H767.038V297.621ZM805.333 297.621H842.504V261.544H805.333V297.621ZM843.629 297.621H880.799V261.544H843.629V297.621ZM881.924 297.621H919.094V261.544H881.924V297.621ZM920.219 297.621H957.39V261.544H920.219V297.621ZM958.515 297.621H995.686V261.544H958.515V297.621ZM996.811 297.621H1033.98V261.544H996.811V297.621ZM1035.11 297.621H1072.28V261.544H1035.11V297.621ZM1073.4 297.621H1110.57V261.544H1073.4V297.621ZM1111.7 297.621H1148.87V261.544H1111.7V297.621ZM1149.99 297.621H1187.16V261.544H1149.99V297.621ZM1188.29 297.621H1225.46V261.544H1188.29V297.621ZM1226.58 297.621H1263.75V261.544H1226.58V297.621ZM1264.88 297.621H1302.05V261.544H1264.88V297.621ZM1303.17 297.621H1340.34V261.544H1303.17V297.621ZM1341.47 297.621H1378.64V261.544H1341.47V297.621ZM1379.76 297.621H1416.94V261.544H1379.76V297.621ZM1418.06 297.621H1455.23V261.544H1418.06V297.621ZM1456.36 297.621H1493.53V261.544H1456.36V297.621ZM1494.65 297.621H1531.82V261.544H1494.65V297.621ZM1532.95 297.621H1570.12V261.544H1532.95V297.621ZM1571.24 297.621H1608.41V261.544H1571.24V297.621ZM1609.54 297.621H1646.71V261.544H1609.54V297.621ZM1647.83 297.621H1685V261.544H1647.83V297.621ZM1686.13 297.621H1723.3V261.544H1686.13V297.621ZM1724.42 297.621H1761.59V261.544H1724.42V297.621ZM1762.72 297.621H1799.89V261.544H1762.72V297.621ZM1801.02 297.621H1838.19V261.544H1801.02V297.621ZM1839.31 297.621H1876.48V261.544H1839.31V297.621ZM1877.61 297.621H1914.78V261.544H1877.61V297.621ZM1915.9 297.621H1953.07V261.544H1915.9V297.621ZM1954.2 297.621H1991.37V261.544H1954.2V297.621ZM1992.49 297.621H2029.66V261.544H1992.49V297.621ZM2030.79 297.621H2067.96V261.544H2030.79V297.621ZM2069.08 297.621H2106.25V261.544H2069.08V297.621ZM2107.38 297.621H2144.55V261.544H2107.38V297.621ZM2145.67 297.621H2182.84V261.544H2145.67V297.621ZM2183.97 297.621H2221.14V261.544H2183.97V297.621ZM1.12891 260.419H38.2998V224.342H1.12891V260.419ZM39.4248 260.419H76.5938V224.342H39.4248V260.419ZM77.7188 260.419H114.89V224.342H77.7188V260.419ZM116.015 260.419H153.186V224.342H116.015V260.419ZM154.311 260.419H191.481V224.342H154.311V260.419ZM192.606 260.419H229.776V224.342H192.606V260.419ZM230.901 260.419H268.071V224.342H230.901V260.419ZM269.196 260.419H306.366V224.342H269.196V260.419ZM307.491 260.419H344.663V224.342H307.491V260.419ZM345.788 260.419H382.958V224.342H345.788V260.419ZM384.083 260.419H421.253V224.342H384.083V260.419ZM422.378 260.419H459.549V224.342H422.378V260.419ZM460.674 260.419H497.844V224.342H460.674V260.419ZM498.969 260.419H536.14V224.342H498.969V260.419ZM537.265 260.419H574.435V224.342H537.265V260.419ZM575.56 260.419H612.73V224.342H575.56V260.419ZM613.855 260.419H651.027V224.342H613.855V260.419ZM652.152 260.419H689.322V224.342H652.152V260.419ZM690.447 260.419H727.617V224.342H690.447V260.419ZM728.742 260.419H765.913V224.342H728.742V260.419ZM767.038 260.419H804.208V224.342H767.038V260.419ZM805.333 260.419H842.504V224.342H805.333V260.419ZM843.629 260.419H880.799V224.342H843.629V260.419ZM881.924 260.419H919.094V224.342H881.924V260.419ZM920.219 260.419H957.39V224.342H920.219V260.419ZM958.515 260.419H995.686V224.342H958.515V260.419ZM996.811 260.419H1033.98V224.342H996.811V260.419ZM1035.11 260.419H1072.28V224.342H1035.11V260.419ZM1073.4 260.419H1110.57V224.342H1073.4V260.419ZM1111.7 260.419H1148.87V224.342H1111.7V260.419ZM1149.99 260.419H1187.16V224.342H1149.99V260.419ZM1188.29 260.419H1225.46V224.342H1188.29V260.419ZM1226.58 260.419H1263.75V224.342H1226.58V260.419ZM1264.88 260.419H1302.05V224.342H1264.88V260.419ZM1303.17 260.419H1340.34V224.342H1303.17V260.419ZM1341.47 260.419H1378.64V224.342H1341.47V260.419ZM1379.76 260.419H1416.94V224.342H1379.76V260.419ZM1418.06 260.419H1455.23V224.342H1418.06V260.419ZM1456.36 260.419H1493.53V224.342H1456.36V260.419ZM1494.65 260.419H1531.82V224.342H1494.65V260.419ZM1532.95 260.419H1570.12V224.342H1532.95V260.419ZM1571.24 260.419H1608.41V224.342H1571.24V260.419ZM1609.54 260.419H1646.71V224.342H1609.54V260.419ZM1647.83 260.419H1685V224.342H1647.83V260.419ZM1686.13 260.419H1723.3V224.342H1686.13V260.419ZM1724.42 260.419H1761.59V224.342H1724.42V260.419ZM1762.72 260.419H1799.89V224.342H1762.72V260.419ZM1801.02 260.419H1838.19V224.342H1801.02V260.419ZM1839.31 260.419H1876.48V224.342H1839.31V260.419ZM1877.61 260.419H1914.78V224.342H1877.61V260.419ZM1915.9 260.419H1953.07V224.342H1915.9V260.419ZM1954.2 260.419H1991.37V224.342H1954.2V260.419ZM1992.49 260.419H2029.66V224.342H1992.49V260.419ZM2030.79 260.419H2067.96V224.342H2030.79V260.419ZM2069.08 260.419H2106.25V224.342H2069.08V260.419ZM2107.38 260.419H2144.55V224.342H2107.38V260.419ZM2145.67 260.419H2182.84V224.342H2145.67V260.419ZM2183.97 260.419H2221.14V224.342H2183.97V260.419ZM1.12891 223.217H38.2998V187.138H1.12891V223.217ZM39.4248 223.217H76.5938V187.138H39.4248V223.217ZM77.7188 223.217H114.89V187.138H77.7188V223.217ZM116.015 223.217H153.186V187.138H116.015V223.217ZM154.311 223.217H191.481V187.138H154.311V223.217ZM192.606 223.217H229.776V187.138H192.606V223.217ZM230.901 223.217H268.071V187.138H230.901V223.217ZM269.196 223.217H306.366V187.138H269.196V223.217ZM307.491 223.217H344.663V187.138H307.491V223.217ZM345.788 223.217H382.958V187.138H345.788V223.217ZM384.083 223.217H421.253V187.138H384.083V223.217ZM422.378 223.217H459.549V187.138H422.378V223.217ZM460.674 223.217H497.844V187.138H460.674V223.217ZM498.969 223.217H536.14V187.138H498.969V223.217ZM537.265 223.217H574.435V187.138H537.265V223.217ZM575.56 223.217H612.73V187.138H575.56V223.217ZM613.855 223.217H651.027V187.138H613.855V223.217ZM652.152 223.217H689.322V187.138H652.152V223.217ZM690.447 223.217H727.617V187.138H690.447V223.217ZM728.742 223.217H765.913V187.138H728.742V223.217ZM767.038 223.217H804.208V187.138H767.038V223.217ZM805.333 223.217H842.504V187.138H805.333V223.217ZM843.629 223.217H880.799V187.138H843.629V223.217ZM881.924 223.217H919.094V187.138H881.924V223.217ZM920.219 223.217H957.39V187.138H920.219V223.217ZM958.515 223.217H995.686V187.138H958.515V223.217ZM996.811 223.217H1033.98V187.138H996.811V223.217ZM1035.11 223.217H1072.28V187.138H1035.11V223.217ZM1073.4 223.217H1110.57V187.138H1073.4V223.217ZM1111.7 223.217H1148.87V187.138H1111.7V223.217ZM1149.99 223.217H1187.16V187.138H1149.99V223.217ZM1188.29 223.217H1225.46V187.138H1188.29V223.217ZM1226.58 223.217H1263.75V187.138H1226.58V223.217ZM1264.88 223.217H1302.05V187.138H1264.88V223.217ZM1303.17 223.217H1340.34V187.138H1303.17V223.217ZM1341.47 223.217H1378.64V187.138H1341.47V223.217ZM1379.76 223.217H1416.94V187.138H1379.76V223.217ZM1418.06 223.217H1455.23V187.138H1418.06V223.217ZM1456.36 223.217H1493.53V187.138H1456.36V223.217ZM1494.65 223.217H1531.82V187.138H1494.65V223.217ZM1532.95 223.217H1570.12V187.138H1532.95V223.217ZM1571.24 223.217H1608.41V187.138H1571.24V223.217ZM1609.54 223.217H1646.71V187.138H1609.54V223.217ZM1647.83 223.217H1685V187.138H1647.83V223.217ZM1686.13 223.217H1723.3V187.138H1686.13V223.217ZM1724.42 223.217H1761.59V187.138H1724.42V223.217ZM1762.72 223.217H1799.89V187.138H1762.72V223.217ZM1801.02 223.217H1838.19V187.138H1801.02V223.217ZM1839.31 223.217H1876.48V187.138H1839.31V223.217ZM1877.61 223.217H1914.78V187.138H1877.61V223.217ZM1915.9 223.217H1953.07V187.138H1915.9V223.217ZM1954.2 223.217H1991.37V187.138H1954.2V223.217ZM1992.49 223.217H2029.66V187.138H1992.49V223.217ZM2030.79 223.217H2067.96V187.138H2030.79V223.217ZM2069.08 223.217H2106.25V187.138H2069.08V223.217ZM2107.38 223.217H2144.55V187.138H2107.38V223.217ZM2145.67 223.217H2182.84V187.138H2145.67V223.217ZM2183.97 223.217H2221.14V187.138H2183.97V223.217ZM1.12891 186.013H38.2998V149.936H1.12891V186.013ZM39.4248 186.013H76.5938V149.936H39.4248V186.013ZM77.7188 186.013H114.89V149.936H77.7188V186.013ZM116.015 186.013H153.186V149.936H116.015V186.013ZM154.311 186.013H191.481V149.936H154.311V186.013ZM192.606 186.013H229.776V149.936H192.606V186.013ZM230.901 186.013H268.071V149.936H230.901V186.013ZM269.196 186.013H306.366V149.936H269.196V186.013ZM307.491 186.013H344.663V149.936H307.491V186.013ZM345.788 186.013H382.958V149.936H345.788V186.013ZM384.083 186.013H421.253V149.936H384.083V186.013ZM422.378 186.013H459.549V149.936H422.378V186.013ZM460.674 186.013H497.844V149.936H460.674V186.013ZM498.969 186.013H536.14V149.936H498.969V186.013ZM537.265 186.013H574.435V149.936H537.265V186.013ZM575.56 186.013H612.73V149.936H575.56V186.013ZM613.855 186.013H651.027V149.936H613.855V186.013ZM652.152 186.013H689.322V149.936H652.152V186.013ZM690.447 186.013H727.617V149.936H690.447V186.013ZM728.742 186.013H765.913V149.936H728.742V186.013ZM767.038 186.013H804.208V149.936H767.038V186.013ZM805.333 186.013H842.504V149.936H805.333V186.013ZM843.629 186.013H880.799V149.936H843.629V186.013ZM881.924 186.013H919.094V149.936H881.924V186.013ZM920.219 186.013H957.39V149.936H920.219V186.013ZM958.515 186.013H995.686V149.936H958.515V186.013ZM996.811 186.013H1033.98V149.936H996.811V186.013ZM1035.11 186.013H1072.28V149.936H1035.11V186.013ZM1073.4 186.013H1110.57V149.936H1073.4V186.013ZM1111.7 186.013H1148.87V149.936H1111.7V186.013ZM1149.99 186.013H1187.16V149.936H1149.99V186.013ZM1188.29 186.013H1225.46V149.936H1188.29V186.013ZM1226.58 186.013H1263.75V149.936H1226.58V186.013ZM1264.88 186.013H1302.05V149.936H1264.88V186.013ZM1303.17 186.013H1340.34V149.936H1303.17V186.013ZM1341.47 186.013H1378.64V149.936H1341.47V186.013ZM1379.76 186.013H1416.94V149.936H1379.76V186.013ZM1418.06 186.013H1455.23V149.936H1418.06V186.013ZM1456.36 186.013H1493.53V149.936H1456.36V186.013ZM1494.65 186.013H1531.82V149.936H1494.65V186.013ZM1532.95 186.013H1570.12V149.936H1532.95V186.013ZM1571.24 186.013H1608.41V149.936H1571.24V186.013ZM1609.54 186.013H1646.71V149.936H1609.54V186.013ZM1647.83 186.013H1685V149.936H1647.83V186.013ZM1686.13 186.013H1723.3V149.936H1686.13V186.013ZM1724.42 186.013H1761.59V149.936H1724.42V186.013ZM1762.72 186.013H1799.89V149.936H1762.72V186.013ZM1801.02 186.013H1838.19V149.936H1801.02V186.013ZM1839.31 186.013H1876.48V149.936H1839.31V186.013ZM1877.61 186.013H1914.78V149.936H1877.61V186.013ZM1915.9 186.013H1953.07V149.936H1915.9V186.013ZM1954.2 186.013H1991.37V149.936H1954.2V186.013ZM1992.49 186.013H2029.66V149.936H1992.49V186.013ZM2030.79 186.013H2067.96V149.936H2030.79V186.013ZM2069.08 186.013H2106.25V149.936H2069.08V186.013ZM2107.38 186.013H2144.55V149.936H2107.38V186.013ZM2145.67 186.013H2182.84V149.936H2145.67V186.013ZM2183.97 186.013H2221.14V149.936H2183.97V186.013ZM1.12891 148.811H38.2998V112.733H1.12891V148.811ZM39.4248 148.811H76.5938V112.733H39.4248V148.811ZM77.7188 148.811H114.89V112.733H77.7188V148.811ZM116.015 148.811H153.186V112.733H116.015V148.811ZM154.311 148.811H191.481V112.733H154.311V148.811ZM192.606 148.811H229.776V112.733H192.606V148.811ZM230.901 148.811H268.071V112.733H230.901V148.811ZM269.196 148.811H306.366V112.733H269.196V148.811ZM307.491 148.811H344.663V112.733H307.491V148.811ZM345.788 148.811H382.958V112.733H345.788V148.811ZM384.083 148.811H421.253V112.733H384.083V148.811ZM422.378 148.811H459.549V112.733H422.378V148.811ZM460.674 148.811H497.844V112.733H460.674V148.811ZM498.969 148.811H536.14V112.733H498.969V148.811ZM537.265 148.811H574.435V112.733H537.265V148.811ZM575.56 148.811H612.73V112.733H575.56V148.811ZM613.855 148.811H651.027V112.733H613.855V148.811ZM652.152 148.811H689.322V112.733H652.152V148.811ZM690.447 148.811H727.617V112.733H690.447V148.811ZM728.742 148.811H765.913V112.733H728.742V148.811ZM767.038 148.811H804.208V112.733H767.038V148.811ZM805.333 148.811H842.504V112.733H805.333V148.811ZM843.629 148.811H880.799V112.733H843.629V148.811ZM881.924 148.811H919.094V112.733H881.924V148.811ZM920.219 148.811H957.39V112.733H920.219V148.811ZM958.515 148.811H995.686V112.733H958.515V148.811ZM996.811 148.811H1033.98V112.733H996.811V148.811ZM1035.11 148.811H1072.28V112.733H1035.11V148.811ZM1073.4 148.811H1110.57V112.733H1073.4V148.811ZM1111.7 148.811H1148.87V112.733H1111.7V148.811ZM1149.99 148.811H1187.16V112.733H1149.99V148.811ZM1188.29 148.811H1225.46V112.733H1188.29V148.811ZM1226.58 148.811H1263.75V112.733H1226.58V148.811ZM1264.88 148.811H1302.05V112.733H1264.88V148.811ZM1303.17 148.811H1340.34V112.733H1303.17V148.811ZM1341.47 148.811H1378.64V112.733H1341.47V148.811ZM1379.76 148.811H1416.94V112.733H1379.76V148.811ZM1418.06 148.811H1455.23V112.733H1418.06V148.811ZM1456.36 148.811H1493.53V112.733H1456.36V148.811ZM1494.65 148.811H1531.82V112.733H1494.65V148.811ZM1532.95 148.811H1570.12V112.733H1532.95V148.811ZM1571.24 148.811H1608.41V112.733H1571.24V148.811ZM1609.54 148.811H1646.71V112.733H1609.54V148.811ZM1647.83 148.811H1685V112.733H1647.83V148.811ZM1686.13 148.811H1723.3V112.733H1686.13V148.811ZM1724.42 148.811H1761.59V112.733H1724.42V148.811ZM1762.72 148.811H1799.89V112.733H1762.72V148.811ZM1801.02 148.811H1838.19V112.733H1801.02V148.811ZM1839.31 148.811H1876.48V112.733H1839.31V148.811ZM1877.61 148.811H1914.78V112.733H1877.61V148.811ZM1915.9 148.811H1953.07V112.733H1915.9V148.811ZM1954.2 148.811H1991.37V112.733H1954.2V148.811ZM1992.49 148.811H2029.66V112.733H1992.49V148.811ZM2030.79 148.811H2067.96V112.733H2030.79V148.811ZM2069.08 148.811H2106.25V112.733H2069.08V148.811ZM2107.38 148.811H2144.55V112.733H2107.38V148.811ZM2145.67 148.811H2182.84V112.733H2145.67V148.811ZM2183.97 148.811H2221.14V112.733H2183.97V148.811ZM1.12891 111.608H38.2998V75.5303H1.12891V111.608ZM39.4248 111.608H76.5938V75.5303H39.4248V111.608ZM77.7188 111.608H114.89V75.5303H77.7188V111.608ZM116.015 111.608H153.186V75.5303H116.015V111.608ZM154.311 111.608H191.481V75.5303H154.311V111.608ZM192.606 111.608H229.776V75.5303H192.606V111.608ZM230.901 111.608H268.071V75.5303H230.901V111.608ZM269.196 111.608H306.366V75.5303H269.196V111.608ZM307.491 111.608H344.663V75.5303H307.491V111.608ZM345.788 111.608H382.958V75.5303H345.788V111.608ZM384.083 111.608H421.253V75.5303H384.083V111.608ZM422.378 111.608H459.549V75.5303H422.378V111.608ZM460.674 111.608H497.844V75.5303H460.674V111.608ZM498.969 111.608H536.14V75.5303H498.969V111.608ZM537.265 111.608H574.435V75.5303H537.265V111.608ZM575.56 111.608H612.73V75.5303H575.56V111.608ZM613.855 111.608H651.027V75.5303H613.855V111.608ZM652.152 111.608H689.322V75.5303H652.152V111.608ZM690.447 111.608H727.617V75.5303H690.447V111.608ZM728.742 111.608H765.913V75.5303H728.742V111.608ZM767.038 111.608H804.208V75.5303H767.038V111.608ZM805.333 111.608H842.504V75.5303H805.333V111.608ZM843.629 111.608H880.799V75.5303H843.629V111.608ZM881.924 111.608H919.094V75.5303H881.924V111.608ZM920.219 111.608H957.39V75.5303H920.219V111.608ZM958.515 111.608H995.686V75.5303H958.515V111.608ZM996.811 111.608H1033.98V75.5303H996.811V111.608ZM1035.11 111.608H1072.28V75.5303H1035.11V111.608ZM1073.4 111.608H1110.57V75.5303H1073.4V111.608ZM1111.7 111.608H1148.87V75.5303H1111.7V111.608ZM1149.99 111.608H1187.16V75.5303H1149.99V111.608ZM1188.29 111.608H1225.46V75.5303H1188.29V111.608ZM1226.58 111.608H1263.75V75.5303H1226.58V111.608ZM1264.88 111.608H1302.05V75.5303H1264.88V111.608ZM1303.17 111.608H1340.34V75.5303H1303.17V111.608ZM1341.47 111.608H1378.64V75.5303H1341.47V111.608ZM1379.76 111.608H1416.94V75.5303H1379.76V111.608ZM1418.06 111.608H1455.23V75.5303H1418.06V111.608ZM1456.36 111.608H1493.53V75.5303H1456.36V111.608ZM1494.65 111.608H1531.82V75.5303H1494.65V111.608ZM1532.95 111.608H1570.12V75.5303H1532.95V111.608ZM1571.24 111.608H1608.41V75.5303H1571.24V111.608ZM1609.54 111.608H1646.71V75.5303H1609.54V111.608ZM1647.83 111.608H1685V75.5303H1647.83V111.608ZM1686.13 111.608H1723.3V75.5303H1686.13V111.608ZM1724.42 111.608H1761.59V75.5303H1724.42V111.608ZM1762.72 111.608H1799.89V75.5303H1762.72V111.608ZM1801.02 111.608H1838.19V75.5303H1801.02V111.608ZM1839.31 111.608H1876.48V75.5303H1839.31V111.608ZM1877.61 111.608H1914.78V75.5303H1877.61V111.608ZM1915.9 111.608H1953.07V75.5303H1915.9V111.608ZM1954.2 111.608H1991.37V75.5303H1954.2V111.608ZM1992.49 111.608H2029.66V75.5303H1992.49V111.608ZM2030.79 111.608H2067.96V75.5303H2030.79V111.608ZM2069.08 111.608H2106.25V75.5303H2069.08V111.608ZM2107.38 111.608H2144.55V75.5303H2107.38V111.608ZM2145.67 111.608H2182.84V75.5303H2145.67V111.608ZM2183.97 111.608H2221.14V75.5303H2183.97V111.608ZM1.12891 74.4053H38.2998V38.3281H1.12891V74.4053ZM39.4248 74.4053H76.5938V38.3281H39.4248V74.4053ZM77.7188 74.4053H114.89V38.3281H77.7188V74.4053ZM116.015 74.4053H153.186V38.3281H116.015V74.4053ZM154.311 74.4053H191.481V38.3281H154.311V74.4053ZM192.606 74.4053H229.776V38.3281H192.606V74.4053ZM230.901 74.4053H268.071V38.3281H230.901V74.4053ZM269.196 74.4053H306.366V38.3281H269.196V74.4053ZM307.491 74.4053H344.663V38.3281H307.491V74.4053ZM345.788 74.4053H382.958V38.3281H345.788V74.4053ZM384.083 74.4053H421.253V38.3281H384.083V74.4053ZM422.378 74.4053H459.549V38.3281H422.378V74.4053ZM460.674 74.4053H497.844V38.3281H460.674V74.4053ZM498.969 74.4053H536.14V38.3281H498.969V74.4053ZM537.265 74.4053H574.435V38.3281H537.265V74.4053ZM575.56 74.4053H612.73V38.3281H575.56V74.4053ZM613.855 74.4053H651.027V38.3281H613.855V74.4053ZM652.152 74.4053H689.322V38.3281H652.152V74.4053ZM690.447 74.4053H727.617V38.3281H690.447V74.4053ZM728.742 74.4053H765.913V38.3281H728.742V74.4053ZM767.038 74.4053H804.208V38.3281H767.038V74.4053ZM805.333 74.4053H842.504V38.3281H805.333V74.4053ZM843.629 74.4053H880.799V38.3281H843.629V74.4053ZM881.924 74.4053H919.094V38.3281H881.924V74.4053ZM920.219 74.4053H957.39V38.3281H920.219V74.4053ZM958.515 74.4053H995.686V38.3281H958.515V74.4053ZM996.811 74.4053H1033.98V38.3281H996.811V74.4053ZM1035.11 74.4053H1072.28V38.3281H1035.11V74.4053ZM1073.4 74.4053H1110.57V38.3281H1073.4V74.4053ZM1111.7 74.4053H1148.87V38.3281H1111.7V74.4053ZM1149.99 74.4053H1187.16V38.3281H1149.99V74.4053ZM1188.29 74.4053H1225.46V38.3281H1188.29V74.4053ZM1226.58 74.4053H1263.75V38.3281H1226.58V74.4053ZM1264.88 74.4053H1302.05V38.3281H1264.88V74.4053ZM1303.17 74.4053H1340.34V38.3281H1303.17V74.4053ZM1341.47 74.4053H1378.64V38.3281H1341.47V74.4053ZM1379.76 74.4053H1416.94V38.3281H1379.76V74.4053ZM1418.06 74.4053H1455.23V38.3281H1418.06V74.4053ZM1456.36 74.4053H1493.53V38.3281H1456.36V74.4053ZM1494.65 74.4053H1531.82V38.3281H1494.65V74.4053ZM1532.95 74.4053H1570.12V38.3281H1532.95V74.4053ZM1571.24 74.4053H1608.41V38.3281H1571.24V74.4053ZM1609.54 74.4053H1646.71V38.3281H1609.54V74.4053ZM1647.83 74.4053H1685V38.3281H1647.83V74.4053ZM1686.13 74.4053H1723.3V38.3281H1686.13V74.4053ZM1724.42 74.4053H1761.59V38.3281H1724.42V74.4053ZM1762.72 74.4053H1799.89V38.3281H1762.72V74.4053ZM1801.02 74.4053H1838.19V38.3281H1801.02V74.4053ZM1839.31 74.4053H1876.48V38.3281H1839.31V74.4053ZM1877.61 74.4053H1914.78V38.3281H1877.61V74.4053ZM1915.9 74.4053H1953.07V38.3281H1915.9V74.4053ZM1954.2 74.4053H1991.37V38.3281H1954.2V74.4053ZM1992.49 74.4053H2029.66V38.3281H1992.49V74.4053ZM2030.79 74.4053H2067.96V38.3281H2030.79V74.4053ZM2069.08 74.4053H2106.25V38.3281H2069.08V74.4053ZM2107.38 74.4053H2144.55V38.3281H2107.38V74.4053ZM2145.67 74.4053H2182.84V38.3281H2145.67V74.4053ZM2183.97 74.4053H2221.14V38.3281H2183.97V74.4053ZM1.12891 37.2031H38.2998V1.125H1.12891V37.2031ZM39.4248 37.2031H76.5938V1.125H39.4248V37.2031ZM77.7188 37.2031H114.89V1.125H77.7188V37.2031ZM116.015 37.2031H153.186V1.125H116.015V37.2031ZM154.311 37.2031H191.481V1.125H154.311V37.2031ZM192.606 37.2031H229.776V1.125H192.606V37.2031ZM230.901 37.2031H268.071V1.125H230.901V37.2031ZM269.196 37.2031H306.366V1.125H269.196V37.2031ZM307.491 37.2031H344.663V1.125H307.491V37.2031ZM345.788 37.2031H382.958V1.125H345.788V37.2031ZM384.083 37.2031H421.253V1.125H384.083V37.2031ZM422.378 37.2031H459.549V1.125H422.378V37.2031ZM460.674 37.2031H497.844V1.125H460.674V37.2031ZM498.969 37.2031H536.14V1.125H498.969V37.2031ZM537.265 37.2031H574.435V1.125H537.265V37.2031ZM575.56 37.2031H612.73V1.125H575.56V37.2031ZM613.855 37.2031H651.027V1.125H613.855V37.2031ZM652.152 37.2031H689.322V1.125H652.152V37.2031ZM690.447 37.2031H727.617V1.125H690.447V37.2031ZM728.742 37.2031H765.913V1.125H728.742V37.2031ZM767.038 37.2031H804.208V1.125H767.038V37.2031ZM805.333 37.2031H842.504V1.125H805.333V37.2031ZM843.629 37.2031H880.799V1.125H843.629V37.2031ZM881.924 37.2031H919.094V1.125H881.924V37.2031ZM920.219 37.2031H957.39V1.125H920.219V37.2031ZM958.515 37.2031H995.686V1.125H958.515V37.2031ZM996.811 37.2031H1033.98V1.125H996.811V37.2031ZM1035.11 37.2031H1072.28V1.125H1035.11V37.2031ZM1073.4 37.2031H1110.57V1.125H1073.4V37.2031ZM1111.7 37.2031H1148.87V1.125H1111.7V37.2031ZM1149.99 37.2031H1187.16V1.125H1149.99V37.2031ZM1188.29 37.2031H1225.46V1.125H1188.29V37.2031ZM1226.58 37.2031H1263.75V1.125H1226.58V37.2031ZM1264.88 37.2031H1302.05V1.125H1264.88V37.2031ZM1303.17 37.2031H1340.34V1.125H1303.17V37.2031ZM1341.47 37.2031H1378.64V1.125H1341.47V37.2031ZM1379.76 37.2031H1416.94V1.125H1379.76V37.2031ZM1418.06 37.2031H1455.23V1.125H1418.06V37.2031ZM1456.36 37.2031H1493.53V1.125H1456.36V37.2031ZM1494.65 37.2031H1531.82V1.125H1494.65V37.2031ZM1532.95 37.2031H1570.12V1.125H1532.95V37.2031ZM1571.24 37.2031H1608.41V1.125H1571.24V37.2031ZM1609.54 37.2031H1646.71V1.125H1609.54V37.2031ZM1647.83 37.2031H1685V1.125H1647.83V37.2031ZM1686.13 37.2031H1723.3V1.125H1686.13V37.2031ZM1724.42 37.2031H1761.59V1.125H1724.42V37.2031ZM1762.72 37.2031H1799.89V1.125H1762.72V37.2031ZM1801.02 37.2031H1838.19V1.125H1801.02V37.2031ZM1839.31 37.2031H1876.48V1.125H1839.31V37.2031ZM1877.61 37.2031H1914.78V1.125H1877.61V37.2031ZM1915.9 37.2031H1953.07V1.125H1915.9V37.2031ZM1954.2 37.2031H1991.37V1.125H1954.2V37.2031ZM1992.49 37.2031H2029.66V1.125H1992.49V37.2031ZM2030.79 37.2031H2067.96V1.125H2030.79V37.2031ZM2069.08 37.2031H2106.25V1.125H2069.08V37.2031ZM2107.38 37.2031H2144.55V1.125H2107.38V37.2031ZM2145.67 37.2031H2182.84V1.125H2145.67V37.2031ZM2183.97 37.2031H2221.14V1.125H2183.97V37.2031Z" fill="url(#paint0_linear_0_66)"/>
<defs>
<linearGradient id="paint0_linear_0_66" x1="133.035" y1="-29.1893" x2="1180.3" y2="1097.39" gradientUnits="userSpaceOnUse">
<stop/>
<stop offset="0.406939"/>
<stop offset="0.624118" stop-color="#2F2F2F"/>
<stop offset="0.780969" stop-color="#125DE6" stop-opacity="0.6"/>
<stop offset="1"/>
</linearGradient>
</defs>
</svg>
